<svg xmlns="http://www.w3.org/2000/svg" xmlns:xlink="http://www.w3.org/1999/xlink" width="500" zoomAndPan="magnify" viewBox="0 0 375 374.999991" height="500" preserveAspectRatio="xMidYMid meet" version="1.2"><defs><clipPath id="79aae68970"><path d="M 37 70 L 338 70 L 338 337.59375 L 37 337.59375 Z M 37 70 "/></clipPath></defs><g id="27c6cba8bf"><g style="fill:#000000;fill-opacity:1;"><g transform="translate(124.851558, 219.749986)"><path style="stroke:none" d="M 27.59375 -15.90625 L 27.59375 -7.59375 C 27.59375 -5.332031 26.976562 -3.5 25.75 -2.09375 C 24.519531 -0.695312 22.171875 0 18.703125 0 L 11.203125 0 C 8.460938 0 6.242188 -0.679688 4.546875 -2.046875 C 2.847656 -3.410156 2 -6.03125 2 -9.90625 L 2 -36.703125 C 2 -40.035156 2.679688 -42.515625 4.046875 -44.140625 C 5.410156 -45.773438 7.695312 -46.59375 10.90625 -46.59375 L 20 -46.59375 C 25.0625 -46.59375 27.59375 -44.0625 27.59375 -39 L 27.59375 -30.703125 L 27 -30.703125 C 26.664062 -32.429688 26.082031 -33.976562 25.25 -35.34375 C 24.414062 -36.71875 23.066406 -37.40625 21.203125 -37.40625 L 17.59375 -37.40625 C 16.132812 -37.40625 15.035156 -37.050781 14.296875 -36.34375 C 13.566406 -35.644531 13.203125 -34.429688 13.203125 -32.703125 L 13.203125 -13.5 C 13.203125 -12.03125 13.535156 -10.960938 14.203125 -10.296875 C 14.867188 -9.628906 15.96875 -9.296875 17.5 -9.296875 L 20.203125 -9.296875 C 22.128906 -9.296875 23.625 -9.894531 24.6875 -11.09375 C 25.757812 -12.300781 26.53125 -13.90625 27 -15.90625 Z M 27.59375 -15.90625 "/></g></g><g style="fill:#000000;fill-opacity:1;"><g transform="translate(154.450418, 219.749986)"><path style="stroke:none" d="M 12.703125 -16.203125 L 12.703125 -11.09375 C 12.703125 -9.5 13.398438 -8.703125 14.796875 -8.703125 C 16.203125 -8.703125 16.90625 -9.5 16.90625 -11.09375 L 16.90625 -22.59375 L 14.203125 -20.40625 C 13.203125 -19.601562 12.703125 -18.203125 12.703125 -16.203125 Z M 1.5 -6.59375 L 1.5 -18.09375 C 1.5 -20.757812 2.332031 -22.796875 4 -24.203125 L 15.40625 -32.59375 C 16.40625 -33.394531 16.90625 -34.164062 16.90625 -34.90625 L 16.90625 -35.90625 C 16.90625 -36.90625 16.335938 -37.40625 15.203125 -37.40625 L 10.40625 -37.40625 C 8.9375 -37.40625 7.597656 -37.171875 6.390625 -36.703125 C 5.191406 -36.234375 4.226562 -35.097656 3.5 -33.296875 L 3 -33.296875 L 3 -40 C 3 -42.269531 3.75 -43.9375 5.25 -45 C 6.75 -46.0625 8.46875 -46.59375 10.40625 -46.59375 L 20.296875 -46.59375 C 22.765625 -46.59375 24.679688 -45.8125 26.046875 -44.25 C 27.410156 -42.6875 28.09375 -40.671875 28.09375 -38.203125 L 28.09375 -3.796875 C 28.09375 -2.796875 28.257812 -2.078125 28.59375 -1.640625 C 28.925781 -1.210938 29.53125 -0.929688 30.40625 -0.796875 L 30.40625 0 L 21.59375 0 C 20.195312 0 19.148438 -0.210938 18.453125 -0.640625 C 17.753906 -1.078125 17.238281 -1.929688 16.90625 -3.203125 C 16.363281 -1.929688 15.625 -1.078125 14.6875 -0.640625 C 13.757812 -0.210938 12.5625 0 11.09375 0 L 7.796875 0 C 5.796875 0 4.242188 -0.582031 3.140625 -1.75 C 2.046875 -2.914062 1.5 -4.53125 1.5 -6.59375 Z M 1.5 -6.59375 "/></g></g><g style="fill:#000000;fill-opacity:1;"><g transform="translate(186.349185, 219.749986)"><path style="stroke:none" d="M 3.296875 16.703125 L 3.296875 -37 C 3.296875 -39.132812 2.53125 -40.234375 1 -40.296875 L 1 -40.796875 L 14.5 -48.09375 L 14.5 -43.59375 C 15.300781 -44.332031 16.367188 -45.066406 17.703125 -45.796875 C 19.035156 -46.535156 20.703125 -46.90625 22.703125 -46.90625 C 25.429688 -46.90625 27.3125 -46.269531 28.34375 -45 C 29.382812 -43.726562 29.90625 -42.0625 29.90625 -40 L 29.90625 -6.59375 C 29.90625 -4.53125 29.269531 -2.863281 28 -1.59375 C 26.726562 -0.332031 24.695312 0.296875 21.90625 0.296875 C 20.101562 0.296875 18.582031 -0.015625 17.34375 -0.640625 C 16.113281 -1.273438 15.164062 -2.0625 14.5 -3 L 14.5 5.5 C 14.5 7.695312 15.265625 8.796875 16.796875 8.796875 L 16.796875 9.296875 Z M 14.5 -35.5 L 14.5 -11.40625 C 14.5 -9.601562 15.195312 -8.703125 16.59375 -8.703125 C 17.332031 -8.703125 17.867188 -8.96875 18.203125 -9.5 C 18.535156 -10.03125 18.703125 -10.664062 18.703125 -11.40625 L 18.703125 -35.5 C 18.703125 -37.101562 18 -37.90625 16.59375 -37.90625 C 15.195312 -37.90625 14.5 -37.101562 14.5 -35.5 Z M 14.5 -35.5 "/></g></g><g style="fill:#000000;fill-opacity:1;"><g transform="translate(218.247953, 219.749986)"><path style="stroke:none" d="M 12.703125 -16.203125 L 12.703125 -11.09375 C 12.703125 -9.5 13.398438 -8.703125 14.796875 -8.703125 C 16.203125 -8.703125 16.90625 -9.5 16.90625 -11.09375 L 16.90625 -22.59375 L 14.203125 -20.40625 C 13.203125 -19.601562 12.703125 -18.203125 12.703125 -16.203125 Z M 1.5 -6.59375 L 1.5 -18.09375 C 1.5 -20.757812 2.332031 -22.796875 4 -24.203125 L 15.40625 -32.59375 C 16.40625 -33.394531 16.90625 -34.164062 16.90625 -34.90625 L 16.90625 -35.90625 C 16.90625 -36.90625 16.335938 -37.40625 15.203125 -37.40625 L 10.40625 -37.40625 C 8.9375 -37.40625 7.597656 -37.171875 6.390625 -36.703125 C 5.191406 -36.234375 4.226562 -35.097656 3.5 -33.296875 L 3 -33.296875 L 3 -40 C 3 -42.269531 3.75 -43.9375 5.25 -45 C 6.75 -46.0625 8.46875 -46.59375 10.40625 -46.59375 L 20.296875 -46.59375 C 22.765625 -46.59375 24.679688 -45.8125 26.046875 -44.25 C 27.410156 -42.6875 28.09375 -40.671875 28.09375 -38.203125 L 28.09375 -3.796875 C 28.09375 -2.796875 28.257812 -2.078125 28.59375 -1.640625 C 28.925781 -1.210938 29.53125 -0.929688 30.40625 -0.796875 L 30.40625 0 L 21.59375 0 C 20.195312 0 19.148438 -0.210938 18.453125 -0.640625 C 17.753906 -1.078125 17.238281 -1.929688 16.90625 -3.203125 C 16.363281 -1.929688 15.625 -1.078125 14.6875 -0.640625 C 13.757812 -0.210938 12.5625 0 11.09375 0 L 7.796875 0 C 5.796875 0 4.242188 -0.582031 3.140625 -1.75 C 2.046875 -2.914062 1.5 -4.53125 1.5 -6.59375 Z M 1.5 -6.59375 "/></g></g><g clip-rule="nonzero" clip-path="url(#79aae68970)"><path style=" stroke:none;fill-rule:nonzero;fill:#ffde17;fill-opacity:1;" d="M 332.839844 128.277344 C 305.375 50.546875 218.90625 56.300781 187.5 115.300781 C 156.160156 56.234375 69.6875 50.34375 42.089844 128.011719 C 6.808594 227.417969 173.800781 329.566406 187.230469 337.59375 C 200.730469 329.566406 367.921875 227.753906 332.839844 128.277344 Z M 332.839844 128.277344 "/></g></g></svg>