<?xml version="1.0" encoding="UTF-8"?>
<svg id="Calque_1" data-name="Calque 1" xmlns="http://www.w3.org/2000/svg" xmlns:xlink="http://www.w3.org/1999/xlink" viewBox="0 0 500 164.75">
  <defs>
    <style>
      .cls-1 {
        fill: #c7d300;
      }

      .cls-2 {
        clip-path: url(#clippath-2);
      }

      .cls-2, .cls-3, .cls-4, .cls-5 {
        fill: none;
      }

      .cls-6 {
        fill: #004e85;
      }

      .cls-7 {
        fill: url(#Dégradé_sans_nom_2);
      }

      .cls-8 {
        fill: #004e85;
      }

      .cls-9 {
        fill: #fab900;
      }

      .cls-10 {
        fill: url(#Dégradé_sans_nom_3);
      }

      .cls-11 {
        fill: url(#Dégradé_sans_nom_4);
      }

      .cls-4 {
        clip-path: url(#clippath);
      }

      .cls-5 {
        clip-path: url(#clippath-1);
      }

      .cls-12 {
        fill: #e5007e;
      }
    </style>
    <clipPath id="clippath">
      <path class="cls-3" d="m300.03,123.64h-47.96c-1.56,0-2.83,1.18-2.96,2.69v18.56c.13,1.51,1.41,2.69,2.96,2.69h47.96c1.64,0,2.97-1.32,2.97-2.94v-18.06c0-1.62-1.33-2.94-2.97-2.94h0"/>
    </clipPath>
    <linearGradient id="Dégradé_sans_nom_4" data-name="Dégradé sans nom 4" x1="-1655.29" y1="558.95" x2="-1654.61" y2="558.95" gradientTransform="translate(19924.14 -58038.7) rotate(-90) scale(35.15 -35.15)" gradientUnits="userSpaceOnUse">
      <stop offset="0" stop-color="#c7d300"/>
      <stop offset="1" stop-color="#e4e89a"/>
    </linearGradient>
    <clipPath id="clippath-1">
      <path class="cls-3" d="m99.61,123.56c-1.52,0-2.78,1.15-2.94,2.63v18.77c.16,1.48,1.42,2.63,2.94,2.63h134.45c1.63,0,2.96-1.32,2.96-2.95v-18.11c0-1.63-1.33-2.95-2.96-2.95H99.61Z"/>
    </clipPath>
    <linearGradient id="Dégradé_sans_nom_2" data-name="Dégradé sans nom 2" x1="-1655.33" y1="555.85" x2="-1654.65" y2="555.85" gradientTransform="translate(19773.52 -58241.18) rotate(-90) scale(35.27 -35.27)" gradientUnits="userSpaceOnUse">
      <stop offset="0" stop-color="#fab900"/>
      <stop offset="1" stop-color="#ffdc92"/>
    </linearGradient>
    <clipPath id="clippath-2">
      <path class="cls-3" d="m317.86,123.56c-1.56,0-2.83,1.21-2.93,2.73v18.48c.11,1.53,1.38,2.73,2.93,2.73h99.62c1.63,0,2.94-1.32,2.94-2.94v-18.06c0-1.62-1.32-2.94-2.94-2.94h-99.62Z"/>
    </clipPath>
    <linearGradient id="Dégradé_sans_nom_3" data-name="Dégradé sans nom 3" x1="-1655.3" y1="559.11" x2="-1654.61" y2="559.11" gradientTransform="translate(20026.51 -58054.59) rotate(-90) scale(35.16 -35.16)" gradientUnits="userSpaceOnUse">
      <stop offset="0" stop-color="#e5007e"/>
      <stop offset="1" stop-color="#f19dc3"/>
    </linearGradient>
  </defs>
  <g>
    <path class="cls-6" d="m15.54,58.08h8.8v37.48c0,5.97-.39,10.15-1.16,12.56-.77,2.41-2.05,4.32-3.82,5.74-1.78,1.42-3.91,2.13-6.39,2.13-5.08,0-9.4-2.73-12.97-8.18l6.33-7.26c1.4,1.95,2.59,3.25,3.57,3.92.98.67,1.93,1,2.85,1s1.64-.49,2.1-1.46c.46-.97.69-3.11.69-6.41v-39.51Z"/>
    <path class="cls-6" d="m48.35,76.68c-2.66,0-4.87,1.13-6.64,3.4-1.77,2.27-2.65,5.16-2.65,8.7s.87,6.58,2.62,8.83c1.75,2.25,3.96,3.38,6.64,3.38s4.91-1.14,6.68-3.42c1.78-2.28,2.67-5.21,2.67-8.79s-.87-6.5-2.62-8.74c-1.75-2.24-3.98-3.36-6.7-3.36m-.14-9.87c3.22,0,6.24.99,9.07,2.96,2.83,1.97,5.04,4.65,6.63,8.03,1.59,3.38,2.38,7.03,2.38,10.94s-.8,7.63-2.4,11.06c-1.6,3.43-3.77,6.11-6.53,8.05-2.76,1.93-5.8,2.9-9.12,2.9-4.89,0-9.06-2.13-12.52-6.39-3.46-4.26-5.18-9.44-5.18-15.53,0-6.53,1.95-11.97,5.86-16.32,3.43-3.79,7.36-5.68,11.81-5.68"/>
    <polygon class="cls-6" points="67.75 67.88 76.49 67.88 85.35 94.1 95.12 67.88 103.88 67.88 82.53 124.95 73.7 124.95 80.71 106.55 67.75 67.88"/>
    <path class="cls-6" d="m132.61,83.55c-.56-2.33-1.68-4.22-3.34-5.68-1.66-1.46-3.59-2.19-5.79-2.19-2.38,0-4.48.82-6.28,2.46-1.13,1.02-2.18,2.83-3.14,5.41h18.55Zm8.55,8.26h-27.47c.4,2.97,1.46,5.33,3.18,7.09,1.72,1.75,3.92,2.63,6.59,2.63,3.2,0,5.94-1.37,8.24-4.11l7.21,4.15c-1.8,3.12-3.95,5.43-6.45,6.93-2.51,1.5-5.48,2.25-8.93,2.25-5.35,0-9.7-2.07-13.06-6.2-3.36-4.13-5.04-9.31-5.04-15.53s1.68-11.67,5.03-15.88c3.35-4.21,7.55-6.32,12.61-6.32,5.37,0,9.73,2.11,13.1,6.32,3.36,4.21,5.04,9.77,5.04,16.69l-.03,2Z"/>
    <path class="cls-6" d="m146.33,67.88h8.65v20.12c0,3.92.22,6.64.66,8.16.44,1.52,1.15,2.71,2.12,3.55.97.85,2.17,1.27,3.6,1.27s2.63-.42,3.63-1.25c.99-.83,1.73-2.05,2.21-3.67.36-1.2.53-3.78.53-7.72v-20.47h8.55v17.7c0,7.3-.47,12.29-1.41,14.98-1.15,3.28-2.84,5.79-5.08,7.55-2.24,1.75-5.08,2.63-8.52,2.63-3.74,0-6.76-1.02-9.07-3.07-2.31-2.05-3.93-4.9-4.87-8.56-.67-2.53-1-7.14-1-13.82v-17.4Z"/>
    <path class="cls-6" d="m203.99,73.72l-5.29,6.49c-2.15-2.61-4.1-3.92-5.86-3.92-.96,0-1.71.25-2.26.75-.54.5-.81,1.12-.81,1.86,0,.56.17,1.08.52,1.56.34.47,1.2,1.12,2.55,1.94l3.13,1.92c3.3,2,5.57,4.03,6.8,6.11,1.23,2.07,1.85,4.51,1.85,7.3,0,3.71-1.11,6.81-3.34,9.29-2.22,2.48-5.21,3.73-8.94,3.73-4.97,0-8.94-2.38-11.9-7.14l5.26-7.03c1,1.43,2.18,2.59,3.52,3.48,1.35.88,2.54,1.32,3.59,1.32,1.13,0,2.04-.33,2.73-1,.69-.67,1.03-1.43,1.03-2.3,0-1.61-1.24-3.19-3.73-4.72l-2.88-1.77c-5.51-3.4-8.27-7.67-8.27-12.79,0-3.3,1.04-6.12,3.12-8.47s4.74-3.51,7.97-3.51c2.21,0,4.3.6,6.25,1.79,1.95,1.19,3.61,2.9,4.97,5.13"/>
    <path class="cls-6" d="m235.22,83.55c-.56-2.33-1.68-4.22-3.34-5.68-1.66-1.46-3.59-2.19-5.79-2.19-2.38,0-4.48.82-6.28,2.46-1.13,1.02-2.18,2.83-3.14,5.41h18.55Zm8.55,8.26h-27.47c.4,2.97,1.46,5.33,3.18,7.09,1.72,1.75,3.92,2.63,6.59,2.63,3.2,0,5.94-1.37,8.24-4.11l7.21,4.15c-1.8,3.12-3.95,5.43-6.45,6.93-2.51,1.5-5.48,2.25-8.93,2.25-5.35,0-9.7-2.07-13.06-6.2-3.36-4.13-5.04-9.31-5.04-15.53s1.68-11.67,5.03-15.88c3.35-4.21,7.55-6.32,12.61-6.32,5.37,0,9.73,2.11,13.1,6.32,3.36,4.21,5.04,9.77,5.04,16.69l-.03,2Z"/>
    <path class="cls-6" d="m269.83,73.72l-5.29,6.49c-2.15-2.61-4.1-3.92-5.86-3.92-.96,0-1.71.25-2.26.75-.54.5-.81,1.12-.81,1.86,0,.56.17,1.08.52,1.56.34.47,1.2,1.12,2.55,1.94l3.13,1.92c3.3,2,5.57,4.03,6.8,6.11,1.23,2.07,1.85,4.51,1.85,7.3,0,3.71-1.11,6.81-3.34,9.29-2.22,2.48-5.21,3.73-8.94,3.73-4.97,0-8.94-2.38-11.9-7.14l5.26-7.03c1,1.43,2.18,2.59,3.52,3.48,1.35.88,2.54,1.32,3.59,1.32,1.13,0,2.04-.33,2.73-1,.69-.67,1.03-1.43,1.03-2.3,0-1.61-1.24-3.19-3.73-4.72l-2.88-1.77c-5.51-3.4-8.27-7.67-8.27-12.79,0-3.3,1.04-6.12,3.12-8.47s4.74-3.51,7.97-3.51c2.21,0,4.3.6,6.25,1.79,1.95,1.19,3.61,2.9,4.97,5.13"/>
    <polygon class="cls-6" points="292.74 53.18 315.61 53.18 315.61 63.66 301.45 63.66 301.45 73.91 315.61 73.91 315.61 84.24 301.45 84.24 301.45 109.66 292.74 109.66 292.74 53.18"/>
    <path class="cls-6" d="m338.34,45.19h10.12l-11.47,15.05h-6.14l7.49-15.05Zm7.99,38.36c-.56-2.33-1.68-4.22-3.34-5.68-1.66-1.46-3.59-2.19-5.79-2.19-2.38,0-4.48.82-6.28,2.46-1.13,1.02-2.18,2.83-3.14,5.41h18.55Zm8.55,8.26h-27.47c.4,2.97,1.46,5.33,3.18,7.09,1.72,1.75,3.92,2.63,6.59,2.63,3.2,0,5.94-1.37,8.24-4.11l7.21,4.15c-1.8,3.12-3.95,5.43-6.45,6.93-2.51,1.5-5.48,2.25-8.93,2.25-5.35,0-9.7-2.07-13.06-6.2-3.36-4.13-5.04-9.31-5.04-15.53s1.68-11.67,5.03-15.88c3.35-4.21,7.55-6.32,12.61-6.32,5.37,0,9.73,2.11,13.1,6.32,3.36,4.21,5.04,9.77,5.04,16.69l-.03,2Z"/>
    <path class="cls-6" d="m385.67,83.55c-.56-2.33-1.68-4.22-3.34-5.68-1.66-1.46-3.59-2.19-5.79-2.19-2.38,0-4.48.82-6.28,2.46-1.13,1.02-2.18,2.83-3.14,5.41h18.55Zm8.55,8.26h-27.47c.4,2.97,1.46,5.33,3.18,7.09,1.72,1.75,3.92,2.63,6.59,2.63,3.2,0,5.94-1.37,8.24-4.11l7.21,4.15c-1.8,3.12-3.95,5.43-6.45,6.93-2.51,1.5-5.48,2.25-8.93,2.25-5.35,0-9.7-2.07-13.06-6.2-3.36-4.13-5.04-9.31-5.04-15.53s1.68-11.67,5.03-15.88c3.35-4.21,7.55-6.32,12.61-6.32,5.37,0,9.73,2.11,13.1,6.32,3.36,4.21,5.04,9.77,5.04,16.69l-.03,2Z"/>
    <path class="cls-6" d="m420.28,73.72l-5.29,6.49c-2.15-2.61-4.1-3.92-5.86-3.92-.96,0-1.71.25-2.26.75-.54.5-.81,1.12-.81,1.86,0,.56.17,1.08.52,1.56.34.47,1.2,1.12,2.55,1.94l3.13,1.92c3.3,2,5.57,4.03,6.8,6.11,1.23,2.07,1.85,4.51,1.85,7.3,0,3.71-1.11,6.81-3.34,9.29-2.22,2.48-5.21,3.73-8.94,3.73-4.97,0-8.94-2.38-11.9-7.14l5.26-7.03c1,1.43,2.18,2.59,3.52,3.48,1.35.88,2.54,1.32,3.59,1.32,1.13,0,2.04-.33,2.73-1,.69-.67,1.03-1.43,1.03-2.3,0-1.61-1.24-3.19-3.73-4.72l-2.88-1.77c-5.51-3.4-8.27-7.67-8.27-12.79,0-3.3,1.04-6.12,3.12-8.47s4.74-3.51,7.97-3.51c2.21,0,4.3.6,6.25,1.79,1.95,1.19,3.61,2.9,4.97,5.13"/>
  </g>
  <g>
    <path class="cls-12" d="m278.41,35.03l.26-1.89c.14-.05.27-.13.38-.23l-.08.09,2.16,1.54-1.87-1.88-.05.06c.08-.12.13-.25.16-.38l1.82-.36-1.85-.25c-.04-.12-.1-.24-.18-.34l1.52-2.12-1.85,1.83c-.11-.06-.23-.1-.35-.12l-.54-1.79-.07,1.85c-.11.04-.22.11-.32.19l-2.14-1.53,1.86,1.88c-.06.11-.1.24-.11.36l-1.8.55,1.89.07c.05.11.12.21.2.3l-.1-.08-1.54,2.15,1.88-1.86-.04-.03c.12.08.26.13.39.16l.37,1.84Z"/>
    <path class="cls-12" d="m339.28,36.83l.26-1.89c.14-.05.27-.13.38-.23l-.08.09,2.16,1.54-1.87-1.88-.05.06c.08-.12.13-.25.16-.38l1.82-.36-1.85-.25c-.04-.12-.1-.24-.18-.34l1.52-2.12-1.85,1.83c-.11-.06-.23-.1-.35-.12l-.54-1.79-.07,1.85c-.11.04-.22.11-.32.19l-2.14-1.53,1.86,1.88c-.06.11-.1.24-.11.36l-1.8.55,1.89.07c.05.11.12.21.2.3l-.1-.08-1.54,2.15,1.88-1.86-.04-.03c.12.08.26.13.39.16l.37,1.84Z"/>
    <path class="cls-6" d="m294.65,24.08l.25-1.89c.14-.05.27-.13.38-.24l-.08.09,2.16,1.54-1.86-1.88-.05.06c.08-.12.14-.25.17-.38l1.82-.36-1.86-.25c-.04-.12-.1-.23-.18-.34l1.52-2.12-1.85,1.83c-.11-.06-.23-.1-.35-.12l-.54-1.79-.07,1.85c-.11.04-.22.11-.31.19l-2.14-1.53,1.86,1.88c-.06.11-.1.24-.11.36l-1.8.55,1.89.07c.05.11.11.21.2.3l-.1-.08-1.54,2.16,1.88-1.86-.04-.04c.12.08.26.13.39.16l.37,1.84Z"/>
    <path class="cls-6" d="m244.14,29.92l.25-1.89c.14-.05.27-.13.38-.23l-.08.09,2.16,1.54-1.86-1.88-.05.06c.08-.12.14-.25.17-.38l1.82-.36-1.86-.25c-.04-.12-.1-.23-.18-.34l1.52-2.12-1.85,1.83c-.11-.06-.23-.1-.35-.12l-.54-1.79-.07,1.85c-.11.04-.22.11-.32.19l-2.14-1.53,1.86,1.88c-.06.11-.1.24-.11.36l-1.8.55,1.89.07c.05.11.12.21.2.3l-.1-.08-1.54,2.16,1.88-1.86-.04-.04c.12.08.26.13.39.16l.37,1.84Z"/>
    <path class="cls-6" d="m268.03,57.65l.43-3.22c.24-.09.46-.22.65-.4l-.14.16,3.68,2.63-3.18-3.21-.08.1c.14-.2.23-.42.28-.65l3.11-.62-3.16-.43c-.07-.21-.17-.4-.31-.57l2.59-3.62-3.16,3.13c-.19-.1-.39-.17-.59-.21l-.92-3.05-.12,3.15c-.19.08-.37.19-.54.32l-3.65-2.61,3.18,3.21c-.1.2-.17.4-.19.61l-3.06.93,3.22.12c.08.19.2.36.34.52l-.17-.15-2.63,3.68,3.21-3.18-.07-.06c.21.14.44.23.67.28l.62,3.14Z"/>
    <path class="cls-6" d="m308.94,41.81l.43-3.22c.24-.09.46-.22.65-.4l-.14.16,3.68,2.63-3.18-3.21-.08.1c.14-.2.23-.42.28-.65l3.11-.62-3.16-.43c-.07-.21-.17-.4-.31-.57l2.59-3.62-3.16,3.13c-.19-.1-.39-.17-.59-.21l-.92-3.05-.11,3.15c-.19.08-.37.19-.54.32l-3.65-2.61,3.18,3.21c-.1.2-.17.4-.19.62l-3.06.93,3.22.12c.08.19.2.36.34.52l-.17-.15-2.63,3.68,3.21-3.18-.07-.06c.21.14.44.23.67.28l.62,3.14Z"/>
    <path class="cls-1" d="m234.42,51.86l-2.65-1.87c.03-.25.02-.51-.05-.76l.08.19,4.03-2.04-4.32,1.33.05.12c-.12-.21-.27-.4-.44-.55l.89-3.04-1.84,2.61c-.22-.03-.43-.03-.65,0l-2.01-3.97,1.31,4.25c-.18.12-.33.26-.46.43l-3.13-.59,2.74,1.56c-.02.2,0,.42.04.63l-4.01,2.03,4.32-1.33c.13.18.28.34.46.46l-.59,3.15,1.59-2.8c.2.01.41,0,.62-.06l-.21.08,2.04,4.03-1.33-4.31-.09.04c.22-.12.41-.28.56-.47l3.07.9Z"/>
    <path class="cls-1" d="m368.92,19.03l-2.65-1.87c.03-.25.02-.51-.05-.76l.08.19,4.03-2.04-4.32,1.33.05.12c-.12-.21-.27-.4-.44-.55l.89-3.04-1.84,2.61c-.22-.03-.43-.03-.65,0l-2.01-3.97,1.31,4.25c-.18.12-.33.26-.46.43l-3.13-.59,2.74,1.56c-.02.2,0,.42.04.63l-4.01,2.03,4.32-1.33c.13.18.28.34.46.46l-.59,3.15,1.59-2.8c.2.01.41,0,.62-.06l-.21.08,2.04,4.03-1.33-4.31-.09.04c.22-.12.41-.28.56-.47l3.07.9Z"/>
    <path class="cls-9" d="m181.95,45.4l.26-1.89c.14-.05.27-.13.38-.24l-.08.09,2.16,1.54-1.86-1.88-.05.06c.08-.12.13-.25.16-.38l1.82-.36-1.86-.25c-.04-.12-.1-.23-.18-.34l1.52-2.12-1.85,1.83c-.11-.06-.23-.1-.35-.12l-.54-1.79-.07,1.85c-.11.04-.22.11-.32.19l-2.14-1.53,1.86,1.88c-.06.12-.1.24-.11.36l-1.8.55,1.89.07c.05.11.12.21.2.3l-.1-.08-1.54,2.16,1.88-1.86-.04-.04c.12.08.26.14.39.17l.37,1.84Z"/>
    <path class="cls-6" d="m199.82,21.94l.43-3.22c.24-.09.46-.22.65-.4l-.14.16,3.68,2.63-3.18-3.21-.08.1c.14-.2.23-.42.28-.65l3.11-.62-3.17-.43c-.07-.21-.17-.4-.31-.57l2.59-3.62-3.16,3.13c-.19-.1-.39-.17-.59-.21l-.92-3.05-.12,3.15c-.19.08-.37.19-.54.32l-3.65-2.61,3.18,3.21c-.1.19-.17.4-.19.61l-3.06.93,3.22.12c.08.19.2.36.34.52l-.17-.15-2.63,3.68,3.21-3.18-.07-.06c.21.14.44.23.67.28l.62,3.14Z"/>
    <path class="cls-9" d="m93.77,59.07l.26-1.89c.14-.05.27-.13.38-.23l-.08.09,2.16,1.54-1.87-1.88-.05.06c.08-.12.13-.25.16-.38l1.82-.36-1.86-.25c-.04-.12-.1-.23-.18-.34l1.52-2.12-1.85,1.83c-.11-.06-.23-.1-.35-.12l-.54-1.79-.07,1.85c-.11.04-.22.11-.32.19l-2.14-1.53,1.86,1.88c-.06.11-.1.24-.11.36l-1.8.55,1.89.07c.05.11.12.21.2.3l-.1-.08-1.54,2.16,1.88-1.86-.04-.04c.12.08.26.13.39.17l.37,1.84Z"/>
    <path class="cls-9" d="m358.61,40.62l.26-1.89c.14-.05.27-.13.38-.23l-.08.09,2.16,1.54-1.87-1.88-.05.06c.08-.12.13-.25.16-.38l1.82-.36-1.86-.25c-.04-.12-.1-.23-.18-.34l1.52-2.12-1.85,1.83c-.11-.06-.23-.1-.35-.12l-.54-1.79-.07,1.85c-.11.04-.22.11-.32.19l-2.14-1.53,1.86,1.88c-.06.11-.1.24-.11.36l-1.8.55,1.89.07c.05.11.12.21.2.3l-.1-.08-1.54,2.16,1.88-1.86-.04-.04c.12.08.26.13.39.17l.37,1.84Z"/>
    <path class="cls-6" d="m66.34,45.4l.26-1.89c.14-.05.27-.13.38-.24l-.08.09,2.16,1.54-1.86-1.88-.05.06c.08-.12.13-.25.16-.38l1.82-.36-1.86-.25c-.04-.12-.1-.24-.18-.34l1.52-2.12-1.85,1.83c-.11-.06-.23-.1-.35-.12l-.54-1.79-.07,1.85c-.11.04-.22.11-.32.19l-2.14-1.53,1.86,1.88c-.06.11-.1.24-.11.36l-1.8.55,1.89.07c.05.11.12.21.2.3l-.1-.08-1.54,2.16,1.88-1.86-.04-.03c.12.08.26.13.39.16l.37,1.84Z"/>
    <path class="cls-12" d="m162.88,23.63l.26-1.89c.14-.05.27-.13.38-.24l-.08.09,2.16,1.54-1.86-1.88-.05.06c.08-.12.13-.25.16-.38l1.82-.36-1.86-.25c-.04-.12-.1-.23-.18-.34l1.52-2.12-1.85,1.83c-.11-.06-.23-.1-.35-.12l-.54-1.79-.07,1.85c-.11.04-.22.11-.32.19l-2.14-1.53,1.86,1.88c-.06.11-.1.24-.11.36l-1.8.54,1.89.07c.05.11.12.21.2.3l-.1-.08-1.54,2.16,1.88-1.86-.04-.03c.12.08.26.13.39.16l.37,1.84Z"/>
    <path class="cls-6" d="m88.89,25.69l.43-3.22c.24-.09.46-.22.65-.4l-.14.16,3.68,2.63-3.18-3.21-.08.1c.14-.2.23-.42.28-.65l3.11-.62-3.16-.43c-.07-.21-.17-.4-.31-.57l2.59-3.62-3.16,3.13c-.19-.1-.39-.17-.59-.21l-.92-3.05-.12,3.15c-.19.08-.37.19-.54.32l-3.65-2.61,3.18,3.21c-.1.2-.17.4-.19.61l-3.06.93,3.22.12c.08.19.2.36.34.52l-.17-.15-2.63,3.68,3.21-3.18-.07-.06c.21.14.44.23.67.28l.62,3.14Z"/>
    <path class="cls-6" d="m117.38,57.53l.43-3.22c.24-.09.46-.22.65-.4l-.14.16,3.68,2.63-3.18-3.21-.08.1c.13-.2.23-.42.28-.65l3.11-.62-3.16-.43c-.07-.21-.17-.4-.31-.57l2.59-3.62-3.16,3.13c-.19-.1-.39-.17-.59-.21l-.92-3.05-.12,3.15c-.19.08-.37.19-.54.32l-3.65-2.61,3.18,3.21c-.1.2-.17.4-.19.62l-3.06.93,3.22.12c.08.19.2.36.34.52l-.17-.15-2.63,3.68,3.21-3.18-.07-.06c.21.14.44.23.67.28l.62,3.14Z"/>
    <path class="cls-6" d="m142.47,39.76l.43-3.22c.24-.09.46-.22.65-.4l-.14.16,3.68,2.63-3.18-3.21-.08.1c.14-.2.23-.42.28-.65l3.11-.62-3.16-.43c-.07-.21-.17-.4-.31-.57l2.59-3.62-3.16,3.13c-.19-.1-.39-.17-.59-.21l-.92-3.05-.12,3.15c-.19.08-.37.19-.54.32l-3.65-2.61,3.18,3.21c-.1.2-.17.4-.19.62l-3.06.93,3.22.12c.08.19.2.36.34.52l-.17-.14-2.63,3.67,3.21-3.18-.07-.06c.21.14.44.23.67.28l.62,3.14Z"/>
    <path class="cls-1" d="m30.92,44l.43-3.22c.24-.09.46-.22.65-.4l-.14.16,3.68,2.63-3.18-3.21-.08.1c.13-.2.23-.42.28-.65l3.11-.62-3.17-.43c-.07-.21-.17-.4-.31-.57l2.59-3.62-3.16,3.13c-.19-.1-.39-.17-.59-.21l-.92-3.05-.12,3.15c-.19.08-.37.19-.54.32l-3.65-2.61,3.18,3.21c-.1.2-.17.4-.19.61l-3.06.93,3.22.12c.08.19.2.36.34.52l-.17-.15-2.63,3.68,3.21-3.18-.07-.06c.21.14.44.23.67.28l.62,3.14Z"/>
  </g>
  <g>
    <path class="cls-9" d="m462.83,49.27c-.1.53-.36,2.07-.87,2.92-.52.86-1.49,2.15-1.49,2.15,0,0-.57-1.51-.86-1.88-.29-.36-.21-1.02-.05-1.33.16-.32,1.59-4.04,1.95-4.67.36-.62,1.09-2.98,1.12-3.64,0,0,.69.86,1.53.76,0,0,1.67,1.69,1.56,2.29-.11.6-2.78,2.87-2.88,3.39m-5.74,30.33c.06.55-1.07,3.57-1.38,3.73-.31.18-.84-2.42,1.81-7.04,0,0-.48,2.77-.43,3.31m29.06-40.32c-4-1.51-8.83-1.87-12.29-1.91-.62-.62-1.18-1.18-1.63-1.62,2.36-1.5,10.84-7.08,18.06-14.23,8.49-8.41,10.46-17.91,9.47-18.91-.99-1-12.03,5.68-19.54,13.32-6.58,6.7-10.43,16.17-11.28,18.41-.32-.05-.65-.13-.98-.27-1.37-.6-1.15-3.45-1.15-3.45h0c.03-.05.05-.11.07-.17.14-.42.25-.93.45-1.31.21.38.29.88.46,1.29.16.38.27.78.43,1.15.04-.64.09-1.28.05-1.91.04.11.11.3.21.18.09-.1.05-.46.04-.6-.01-.15-.25-.66-.19-.74.18.03.43.08.52.28-.17-.45-.49-.79-.8-1.12-.25-.26-.8-.63-.93-1.02.2-.02.41.05.59.14.17.08.57.26.7.48-.03-.08-.06-.2-.07-.22-.13-.43-.28-.83-.55-1.19-1.41-1.91-2.56-1.77-2.63-2.06.13-.06.57-.89.58-1.26-.23.29-.77.5-1.07.7-.29.19-.58.41-.85.62-.05.1-.12.14-.19.12.11-.53.19-1.12.45-1.58-.94.7-1.98,1.29-3.13,1.28-.03-.11.09-.18.16-.25.25-.25.51-.5.8-.69.32-.22.68-.32,1.01-.51-.83.32-1.68.66-2.55.83-.64-1.21-1.36-2.44-2.15-3.66-5.5-8.47-14.32-18.12-15.36-18.01-1.04.11-.77,6.93,5.48,16.36,2.36,3.56,4.99,7.05,7.35,10.02-.14.23-.28.46-.39.7-.05.11-.2.43-.17.6.23.02.56-.49.71-.63.08-.07.15-.14.22-.21.12.15.23.29.35.44-.13.35-.25.71-.34,1.08-.12.51-.23,1.06-.27,1.58-.02.22-.09.56.04.75.19-.06.27-.47.31-.63.14-.49.12-1.01.26-1.49.25,1.41.45,2.84.96,4.17.13-.03.2-1.29.22-1.45.09.17.14.34.16.55.07.34.16.68.26,1.02.02.07.19.83.32.8.15-.77.26-1.48.66-2.15.03.37.11.74.31,1.05.14.23.44.61.72.62.02-.26-.03-.54,0-.78.15.27.4.45.64.62.2.14.62.53.87.38.33.38.6.68.8.91-.55.34-1.11.7-1.31.97-.21.28-.35,1.32-.46,2.46-1.18.18-2.44.51-3.46,1.12-2.76,1.64-5.25,4.1-4.41,5.47.72,1.17,4.1.75,7.14-1.12h0c-.12.39-.28.78-.5,1.16-.68,1.15-.86,5.25-1.25,7.18-.39,1.94,1.12,3.67,1.12,3.67-.65,1.34-1.03,3.94-1.03,3.94,0,0-.32-.12-1.35,1.66-1.04,1.79.63,4.63.63,4.63,0,0-1.16,2.1-1.86,3.93-.71,1.82-.87,6.11-1.03,7.5-.16,1.39-1.02,3.86-1.76,5.18-.73,1.33-1.9,5-2.06,7.06-.15,2.05,1.26.55,2.12-.42.86-.98,1.24-2.85,1.43-3.74.19-.88,1.49-2.14,1.49-2.14,0,0,.72.25,1.71-.46.99-.72,2.35-3.79,2.71-4.83.37-1.03-.19-2.59,0-3.65.2-1.04,1.99-5.73,2.05-6.97.06-1.23-.28-4.31-.28-4.31.98-.63,5.94-4.56,7.98-7.89,1.32-2.15,1.43-7.38,1.14-8.48-.22-.86.35-4.7.62-6.4,1.11.72,2.49,1.57,4.06,2.44-.11,1.31.01,3.06-.22,4.13-.35,1.54-1.05,1.12-1.68,1.63-.64.51.03,1.76.07,2.05.05.3-1.21,2.78-.82,3,.39.22,2.22-1.98,2.78-2.58.57-.6.49-2.1.83-2.89.2-.47.85-2.47,1.3-4.16,1.46.73,3.03,1.45,4.68,2.09,7.86,3.05,15.61,3.57,16.49,1.51,1.04-2.42-5.95-6.51-13.06-9.17m-17.73-12.01c.02.05.03.09.03.09,0-.03-.02-.06-.03-.09"/>
    <path class="cls-1" d="m402.73,33.41c-.01.35.13.76.24,1.06.04.12.09.25.14.37-.25-.24-.51-.49-.78-.74.2.02.35-.4.41-.69m45.67,34.4c-.29-.49-1.19-1.14-1.49-1.52-.3-.39-.63-1.88-1.13-2.29-.5-.42-1.49-.3-2.81-.97-1.33-.68-3.1-3.11-4.1-3.94-.99-.83-5.26-1.01-6.07-1.37-.81-.36-2.2-1.69-3.62-2.73-1.43-1.04-6.86-3.57-6.86-3.57.88-1.07,1.03-2.39.27-4.09-.76-1.69-3.45-2.86-4.25-3.31-.8-.46-1.41-.44-2.5-1.04-.81-.45-.85-1.46-1.07-2.4,2.63.31,6.22.57,9.99.32,7.48-.48,13.93-2.9,13.89-4.84-.06-2.27-7.22-2.91-13.95-2.41-4.1.31-8.47,2.01-11.28,3.29-.24-.8-.43-1.56-.48-2.05,0-.03-.01-.06-.01-.09,1.91-2.99,5.83-9.47,8.57-16.54,3.75-9.67,1.83-17.82.67-18.24-1.17-.42-7.63,8.84-10.87,17.55-.61,1.63-1.06,3.3-1.41,4.96-.22-.68-.39-1.2-.45-1.39-.33-1.05-.36-1.98-.37-2.07-.03-.2-.18-1.07-.38-1.4-.12-.19-.15-.76-.17-1.26-.02-.34-.05-.66-.03-.77.05-.28-.22-.24-.27.03-.05.28-.08,1.45-.08,1.45l-.14.02s-.03-.41-.09-.86c-.06-.43-.16-.9-.16-.96-.02-.11-.28-.18-.24.12.02.14.02.52.03.87.03.45.06.91.06.91l-.15.03s-.1-.51-.21-.97c-.11-.47-.22-.89-.23-.97-.02-.17-.32-.19-.28.1.02.14.05.58.13,1,.09.48.23.94.23.94l-.14.02s-.61-1.58-.7-1.73c-.08-.16-.35-.06-.22.14.04.07.12.47.23.84.22.75.49,1.68.48,1.82,0,.2-.09.16-.26.09-.16-.06-.67-.17-.89-.17-.22,0-.57.3-.06.37.51.06.79.49.98.57.2.07.53.3.75.39.22.09.49.44.5.55.07.15.34,3.57.51,4.9.2.72.63,2.43.7,3.16,0,.11.04.24.07.37,0,.09-.01.17-.02.25-.16-.35-.47-.73-.7-.95-.35-.33-.84-.4-1.36-.31-.02-.15,0-.67.18-.69-.41.08-1.18.58-1.52.32.01-.1.11-.16.14-.28-.1-.07-.22-.01-.34-.01-.08-.35.47-.69.53-1.04-.3.05-.61.22-.89.34-.15.06-.52.29-.7.29.03-.28.07-.59,0-.86-.23.07-.35.51-.45.7-.16.33-.31.66-.32,1.02-.08-.37-.15-.76-.22-1.14-.13.27-.22.57-.3.86-.05.17-.04.6-.16.7l-.1.07c-.07.1.02.17.09.26-.39,0-.8-.38-1.22-.26.04.2.07.28.17.44-.22.05-.45.1-.64.22.08.36-.93.44-1.17.53.01.2.25.16.39.16.16,0,1.38-.11,1.47.13-.22.09-1.2.35-1.26.65-.02.14.08.09.11.16.09.46-.45,1-.36,1.51.3.04.41-.44.72-.44.12.37.12.79.23,1.17.23-.24.61-.43.74-.76-.18.25-.19.62-.3.9-.1.26-.21.58-.11.85-1.88-1.7-4.2-3.54-6.87-5.17-7.58-4.61-18.27-8.94-19.07-8.47-.8.46,1.94,5.7,10.48,10.79,6.6,3.94,14.01,7.24,17.04,8.54-.11.13-.26.25-.48.36-.97.49-4.38,2.81-4.38,2.81,0,0-1.16-.03-2.53.16-1.37.18-4.85.82-5.02.79-.12.02-.54-.14-.68-.33-.15-.19-.46-.43-.59-.61-.13-.17-.62-.31-.82-.77-.2-.46-.42-.06-.35.15.06.21.3.65.4.79.11.14.17.2-.03.26-.13.04-1.14.03-1.94.02-.4,0-.82.02-.9,0-.23-.07-.26.2-.08.25.18.04,1.91.2,1.91.2l.02.13s-.5,0-1,.03c-.43.04-.88.12-1.02.14-.31.04-.2.31-.03.29.08,0,.53,0,1.02-.03.49-.02,1.02-.06,1.02-.06l.02.15s-.47.09-.93.18c-.36.08-.74.18-.87.19-.31.04-.17.28-.05.26.06,0,.54-.04,1-.1.45-.05.87-.13.87-.13l.02.13s-1.17.34-1.42.45c-.27.12-.23.38.03.27.11-.05.44-.1.78-.17.51-.11,1.08-.23,1.3-.17.38.1,1.29.02,1.49,0,.09-.01,1.02-.23,2.16-.19.83.03,6.41.12,7.56-.37,1.15-.48,4.15-2.76,4.15-2.76.08.52.24.89.45,1.18-.99.6-2.04,1.39-2.72,2.35-1.63,2.29-2.73,5.12-1.54,5.89,1.01.66,3.59-.91,5.36-3.49.74-1.08,1.27-2.23,1.64-3.2.11.09.23.17.35.24.65.38,2.09,1.68,2.73,2.51.64.83,1.42,2.78,1.42,2.78-5.59,3.81-5.76,6.27-4.47,7.49,1.29,1.22,3.17.98,5.56.71,2.39-.27,9.52-.09,9.52-.09,2.73,1.57,7.81,2.36,8.76,2.88.94.53,2.46.29,3.3.46.84.16,6.31,2.84,7.45,3.4,1.14.55,2.28,1.8,2.99,2.5.71.69,1.33.67,3.37,1.95,2.06,1.27.38-1.22.38-1.22"/>
    <path class="cls-12" d="m493.22,99.33c.05-.2.11-.41.16-.61.08.06.15.1.18.14.21.21.39.39.67.53.15.09.78.27.82.38-.63-.07-1.22-.27-1.83-.45m-2.28,11.31c-.41.24-.62.06-1.04.31.49-1.25.78-.93.75-1.47.08.06.12.11.13.11.07.01.13.03.2.04.47.07,1.02.09,1.44.23-.43.31-1,.5-1.47.78m6.99-7.75c.1-.03.17.06.23.12.22.2.44.41.62.65.2.26.28.58.46.85-.32-.78-.67-1.57-.81-2.39.08,0,.15.03.23.06.13-.19-.6-.59-.82-.52-.09-.27.02-.64.04-.92.02-.27.13-.66,0-.91-.08.26-.16.53-.23.8-.03.1-.09.68-.24.73-.18-.27-.16-.73-.21-1.02-.03-.25-.05-.78-.32-.94-.08.06-.12.16-.15.25-.15,0-.28-.02-.41-.09-.21-.1-.37-.38-.63-.42-.08.13.12.33.13.47-.12-.02-.22-.12-.3-.18-.33-.25-.64-.51-1-.74-.29-.18-.59-.35-.93-.47-.02,0-.05-.02-.09-.03.02-.08.04-.17.06-.25,1.8-8.09,1.47-17.96.39-18.14-1.08-.18-6.46,5.26-8.36,14.29-.35,1.66-.62,3.32-.84,4.93-.29-2.67-.81-5.51-1.7-8.23-3.13-9.54-9.68-19.76-10.95-19.35-1.27.42-3.62,9.19,0,19.8,2.04,5.96,4.85,11.58,6.91,15.35-1.76-1.98-3.84-3.05-4.74-2.44-.98.65-.49,2.64.6,4.65-.82.25-1.5.45-1.87.56-1.43-.62-2.94-1.15-4.44-1.47-5.98-1.25-12.48-1.51-12.81.54-.22,1.38,3.16,3.49,7.85,4.98-2.02.77-4.53,1.32-5.37,1.05-.97-.32-3.27-1.19-3.39-1.03-.12.16,1.29.88,1.29.88,0,0-1.82.44-1.82.63,0,.2,1.01.24,1.33.16.32-.08,1.09-.16,1.33-.08,0,0-1.45.39-1.81.63-.36.24-1,.53-1.29.53s-.25.31.2.27c.44-.04,1.25-.08,1.37-.2.12-.11,1.25-.24,1.25-.24,0,0-.56.48-.85.6-.28.11-1.21.48-1.37.59-.16.12.2.37.69.25.49-.12,1.17-.64,1.37-.72.2-.07,2.06-.07,2.22.2.16.27-.44.87-.69,1.11-.24.24-.56,1.11-.48,1.39,0,0,.61-.56.97-.8.36-.24,1.86-1.19,2.26-1.58.4-.4,1.29-.91,1.61-1.04.28-.11,3.63-.99,5.34-1.53,3.15.61,6.2.81,8.52.85-.83.92-1.82,1.78-2.93,2.28-3.43,1.55-7.39,1.95-8.23,5.16-.85,3.23.69,5.21,1.94,6.95,0,0-.69,2.14-.77,3.61-.08,1.59-.24,4.01-.24,4.01,0,0-4.36-3.5-7.91-4.93-3.55-1.42-4.2-2.38-4.36-3.49-.16-1.12.64-2.07-.81-2.86-1.45-.8-3.55-2.86-4.2-3.82-.65-.95-1.61-2.06-1.29.16.33,2.23.97,4.29,1.94,5.88.97,1.59,2.75,3.34,4.04,4.3,1.29.95,4.52,3.33,6.46,5.08,1.93,1.75,4.36,4.77,5.65,5.09,1.29.31,3.39-.48,4.04-1.43.64-.96,2.58-4.77,2.58-4.77,0,0,2.74,2.39,3.23,3.58.49,1.2,1.21,4.45,2.82,6.44,1.62,1.99,6.86,8.18,7.02,9.29.16,1.11-1.21,2.63-.81,3.18.4.56,3.23,1.91,3.95,2.78.73.88,1.62,2.14,2.02,2.78.4.63,1.29-.32.56-3.02-.73-2.7-1.69-3.65-2.59-5.4-.88-1.75-6.94-12.08-7.66-13.51-.72-1.43-.89-3.5-1.37-4.21-.48-.72-2.02-2.79-2.42-4.05-.41-1.28-2.99-8.11-2.66-8.98.32-.88,1.21-2.86,2.9-3.02,1.7-.16,5.41-1.03,6.3-1.51.89-.48,1.05-1.19,1.05-1.19,0,0,2.58,3.1,2.66,3.73.08.63.41,2.7.41,3.5s.56,1.83.64.63c.09-1.19.33-1.51.89-.87.56.64,1.05,1.35,1.05,1.67s.48,1.67.89,1.74c.4.09.56-2.06.4-2.62-.16-.55-.56-1.43-.56-1.43,0,0,1.21,1.03,1.37,1.43.16.4-.08-.95-.49-1.43-.4-.47-1.69-1.99-2.26-2.63-.57-.64-2.34-4.37-2.5-4.69-.16-.32,1.94.27,2.26-1.58.4-2.27-.32-3.98.32-5.73,0,0,0-.02.02-.03.72-.09,1.42-.19,2.13-.35-.12.06-.35.19-.22.28.13.07.53-.06.68-.11.16-.04.75-.41.84-.36-.04.2-.1.49-.33.62.51-.28.88-.7,1.24-1.11.28-.32.68-.97,1.09-1.17.02.2-.07.43-.16.64-.09.2-.28.66-.52.85.09-.05.21-.11.23-.12.45-.23.85-.48,1.22-.81.61-.54,1.13-1.17,1.49-1.83.06-.25.24-1.02.51-1.14.06.11.1.2.16.28.34,0,.67.15,1,.11-.28-.18-.46-.66-.65-.92-.18-.25-.37-.49-.57-.73-.09-.04-.13-.09-.11-.16.48.04,1,.05,1.42.24-.63-.78-1.18-1.66-1.18-2.69"/>
  </g>
  <g>
    <g>
      <g class="cls-4">
        <rect class="cls-11" x="249.11" y="123.64" width="53.89" height="23.94"/>
      </g>
      <path class="cls-1" d="m252.07,147.1c-1.37,0-2.48-1.11-2.49-2.46v-18.05c0-.66.26-1.28.73-1.74.47-.46,1.09-.72,1.76-.72h47.96c.66,0,1.29.26,1.76.72.47.46.73,1.08.73,1.74v18.05c0,1.36-1.12,2.46-2.49,2.46h-47.96Zm-2.44-22.94c-.65.65-1.01,1.51-1.01,2.42v18.05c0,1.89,1.55,3.42,3.46,3.42h47.96c1.91,0,3.46-1.54,3.46-3.42v-18.06c0-.91-.36-1.77-1.01-2.42-.65-.65-1.52-1-2.44-1h-47.96c-.92,0-1.79.35-2.44,1"/>
      <path class="cls-8" d="m260.71,135.87v6.53h-1.98v-6.53h-.69v-1.8h.69v-3.22c0-1.05.19-1.79.56-2.22.51-.6,1.26-.91,2.23-.91.35,0,.78.1,1.3.3v1.97l-.2-.1c-.42-.21-.77-.32-1.04-.32-.35,0-.58.12-.7.37-.12.24-.18.7-.18,1.39v2.75h2.12v1.8h-2.12Z"/>
      <path class="cls-8" d="m269.6,137.13c-.27-1.02-.92-1.53-1.96-1.53-.24,0-.46.04-.67.11-.21.07-.4.17-.57.31-.17.13-.32.29-.44.48-.12.19-.21.4-.28.64h3.9Zm-4.97-5.35l3.03-2.74,3.08,2.74-1.33,1.02-1.74-1.62-1.72,1.62-1.31-1.02Zm6.97,6.91h-6.03c.05.67.28,1.21.67,1.61.4.39.91.59,1.53.59.48,0,.88-.11,1.2-.33.31-.22.66-.63,1.06-1.23l1.64.9c-.25.43-.52.79-.8,1.09-.28.3-.58.55-.91.75-.32.2-.67.34-1.05.43-.37.09-.78.14-1.22.14-1.25,0-2.26-.4-3.02-1.2-.76-.8-1.14-1.87-1.14-3.19s.37-2.38,1.11-3.19c.74-.8,1.73-1.2,2.95-1.2s2.22.39,2.94,1.17c.71.77,1.07,1.85,1.07,3.22v.45Z"/>
      <polygon class="cls-8" points="275.87 135.87 275.87 142.4 273.9 142.4 273.9 135.87 273.07 135.87 273.07 134.07 273.9 134.07 273.9 131.03 275.87 131.03 275.87 134.07 277.39 134.07 277.39 135.87 275.87 135.87"/>
      <path class="cls-8" d="m284.54,137.13c-.27-1.02-.92-1.53-1.96-1.53-.24,0-.46.04-.67.11-.21.07-.4.17-.57.31-.17.13-.32.29-.44.48-.12.19-.21.4-.28.64h3.9Zm2,1.56h-6.03c.05.67.28,1.21.67,1.61.4.39.91.59,1.53.59.48,0,.88-.11,1.2-.33.31-.22.66-.63,1.06-1.23l1.64.9c-.25.43-.52.79-.8,1.09-.28.3-.58.55-.91.75-.32.2-.67.34-1.05.43-.37.09-.78.14-1.22.14-1.25,0-2.26-.4-3.02-1.2-.76-.8-1.14-1.87-1.14-3.19s.37-2.38,1.11-3.19c.74-.8,1.73-1.2,2.95-1.2s2.22.39,2.94,1.17c.71.77,1.07,1.85,1.07,3.22v.45Z"/>
      <path class="cls-8" d="m293.55,135.51l-1.61.85c-.25-.5-.57-.75-.94-.75-.18,0-.33.06-.46.17-.13.12-.19.27-.19.45,0,.32.37.63,1.12.94,1.03.44,1.72.84,2.08,1.21.36.37.53.86.53,1.49,0,.8-.3,1.47-.89,2.01-.58.51-1.28.77-2.1.77-1.41,0-2.41-.68-3-2.04l1.66-.76c.23.39.41.63.53.74.24.21.52.31.85.31.66,0,.98-.29.98-.88,0-.34-.25-.66-.76-.95-.2-.1-.39-.19-.59-.28-.2-.09-.39-.18-.6-.28-.57-.27-.96-.54-1.2-.82-.29-.35-.44-.79-.44-1.33,0-.72.25-1.31.75-1.78.51-.47,1.13-.71,1.87-.71,1.08,0,1.88.55,2.4,1.65"/>
    </g>
    <g>
      <g class="cls-5">
        <rect class="cls-7" x="96.67" y="123.56" width="140.35" height="24.02"/>
      </g>
      <path class="cls-9" d="m97.14,144.63v-18.12c0-1.36,1.11-2.47,2.48-2.47h134.45c1.36,0,2.47,1.11,2.48,2.47v18.11c0,.66-.26,1.28-.73,1.75-.47.47-1.09.72-1.75.72,0,0-134.46,0-134.46,0-1.36,0-2.47-1.11-2.48-2.47m2.48-21.55c-1.9,0-3.44,1.54-3.44,3.43v18.12c0,1.89,1.55,3.43,3.44,3.43h134.45c.92,0,1.78-.36,2.43-1.01.65-.65,1.01-1.51,1.01-2.43v-18.11c0-1.89-1.55-3.43-3.44-3.43H99.61Z"/>
      <path class="cls-8" d="m107.87,137.78c0,.79.21,1.44.64,1.94.44.5.99.76,1.65.76.71,0,1.28-.24,1.72-.73.44-.5.66-1.14.66-1.92s-.22-1.42-.66-1.92c-.44-.49-1-.74-1.7-.74-.66,0-1.21.25-1.65.75-.44.5-.66,1.13-.66,1.87m4.54-10.16h1.94v14.34h-1.94v-.87c-.76.74-1.61,1.11-2.56,1.11-1.14,0-2.08-.41-2.83-1.24-.74-.85-1.12-1.9-1.12-3.16s.37-2.27,1.12-3.1c.74-.83,1.67-1.25,2.79-1.25.97,0,1.84.4,2.61,1.19v-7.01Z"/>
      <path class="cls-8" d="m123.24,129.61l-3.1,2.81-1.05-.65,2.34-3.1,1.8.94Zm-.91,7.09c-.27-1.03-.91-1.54-1.93-1.54-.23,0-.45.04-.66.11-.2.07-.39.17-.56.31-.17.13-.31.3-.43.48-.12.19-.21.4-.27.64h3.85Zm1.97,1.57h-5.94c.05.68.27,1.21.66,1.61.39.39.89.59,1.51.59.48,0,.87-.11,1.18-.33.31-.22.66-.63,1.05-1.24l1.62.9c-.25.42-.51.79-.79,1.09-.28.3-.58.55-.89.74-.32.19-.66.34-1.03.43-.37.09-.77.14-1.2.14-1.24,0-2.23-.4-2.98-1.19-.75-.8-1.12-1.86-1.12-3.18s.36-2.37,1.09-3.18c.73-.8,1.7-1.2,2.91-1.2s2.18.39,2.89,1.17c.7.77,1.06,1.84,1.06,3.21v.45Z"/>
      <path class="cls-8" d="m132.86,134.03v2.54c-.44-.53-.83-.9-1.17-1.09-.34-.2-.74-.31-1.2-.31-.72,0-1.32.25-1.8.76-.48.5-.71,1.14-.71,1.9s.23,1.41.69,1.91c.47.5,1.06.75,1.78.75.46,0,.87-.1,1.22-.3.34-.19.74-.57,1.2-1.12v2.53c-.78.41-1.56.61-2.33.61-1.28,0-2.36-.41-3.22-1.24-.87-.83-1.3-1.87-1.3-3.11s.44-2.28,1.32-3.13c.88-.85,1.95-1.28,3.22-1.28.82,0,1.59.2,2.32.58"/>
      <path class="cls-8" d="m136.28,137.78c0,.83.22,1.48.66,1.96.45.49,1.05.73,1.79.73s1.34-.24,1.79-.72c.45-.48.67-1.12.67-1.93s-.22-1.45-.67-1.93c-.45-.49-1.05-.73-1.79-.73s-1.32.24-1.77.73c-.45.49-.68,1.12-.68,1.89m-1.97-.03c0-1.2.43-2.21,1.28-3.05.86-.84,1.9-1.26,3.13-1.26s2.29.42,3.15,1.27c.85.85,1.28,1.88,1.28,3.11s-.43,2.28-1.28,3.12c-.86.83-1.92,1.25-3.17,1.25s-2.28-.43-3.12-1.28c-.84-.84-1.26-1.89-1.26-3.16"/>
      <path class="cls-8" d="m145.18,133.69h1.91v.74c.35-.37.66-.62.94-.76.28-.15.61-.22.99-.22.51,0,1.03.16,1.58.49l-.88,1.75c-.36-.26-.72-.39-1.06-.39-1.04,0-1.57.79-1.57,2.36v4.29h-1.91v-8.27Z"/>
      <path class="cls-8" d="m156.52,135.08l-1.58.84c-.25-.5-.56-.75-.93-.75-.18,0-.33.06-.45.17-.12.12-.19.26-.19.45,0,.32.37.63,1.11.94,1.02.44,1.7.84,2.06,1.21.35.37.53.86.53,1.49,0,.8-.3,1.47-.89,2.01-.58.51-1.27.77-2.08.77-1.39,0-2.38-.67-2.95-2.02l1.63-.75c.23.39.4.64.52.74.23.21.51.32.83.32.65,0,.97-.29.97-.88,0-.34-.25-.66-.75-.95-.19-.1-.38-.19-.58-.28-.19-.09-.39-.18-.59-.28-.55-.27-.94-.54-1.17-.82-.29-.35-.43-.79-.43-1.33,0-.72.25-1.31.74-1.78.5-.47,1.11-.71,1.83-.71,1.06,0,1.85.55,2.37,1.64"/>
      <path class="cls-8" d="m165.73,137.78c0,.79.21,1.44.64,1.94.44.5.99.76,1.65.76.71,0,1.28-.24,1.72-.73.44-.5.66-1.14.66-1.92s-.22-1.42-.66-1.92c-.44-.49-1-.74-1.7-.74-.66,0-1.21.25-1.65.75-.44.5-.66,1.13-.66,1.87m4.54-10.16h1.94v14.34h-1.94v-.87c-.76.74-1.61,1.11-2.56,1.11-1.14,0-2.08-.41-2.83-1.24-.74-.85-1.12-1.9-1.12-3.16s.37-2.27,1.12-3.1c.74-.83,1.67-1.25,2.79-1.25.97,0,1.84.4,2.61,1.19v-7.01Z"/>
      <path class="cls-8" d="m180.2,136.7c-.27-1.03-.91-1.54-1.93-1.54-.23,0-.45.04-.66.11-.2.07-.39.17-.56.31-.17.13-.31.3-.43.48-.12.19-.21.4-.27.64h3.85Zm1.97,1.57h-5.94c.05.68.27,1.21.66,1.61.39.39.89.59,1.51.59.48,0,.87-.11,1.18-.33.31-.22.66-.63,1.05-1.24l1.62.9c-.25.42-.51.79-.79,1.09-.28.3-.58.55-.89.74-.32.19-.66.34-1.03.43-.37.09-.77.14-1.2.14-1.24,0-2.23-.4-2.98-1.19-.75-.8-1.12-1.86-1.12-3.18s.36-2.37,1.09-3.18c.73-.8,1.7-1.2,2.91-1.2s2.18.39,2.89,1.17c.7.77,1.06,1.84,1.06,3.21v.45Z"/>
      <polygon class="cls-8" points="191.61 135.47 191.61 141.96 189.7 141.96 189.7 135.47 188.88 135.47 188.88 133.69 189.7 133.69 189.7 130.67 191.61 130.67 191.61 133.69 193.1 133.69 193.1 135.47 191.61 135.47"/>
      <path class="cls-8" d="m196.13,137.78c0,.79.21,1.44.64,1.94.44.5.99.76,1.65.76.71,0,1.28-.24,1.72-.73.44-.5.66-1.14.66-1.92s-.22-1.42-.66-1.92c-.44-.49-1-.74-1.7-.74-.66,0-1.21.25-1.65.75-.44.5-.66,1.13-.66,1.87m4.54-4.1h1.94v8.27h-1.94v-.87c-.79.74-1.64,1.11-2.55,1.11-1.15,0-2.1-.41-2.85-1.24-.74-.85-1.12-1.9-1.12-3.16s.37-2.28,1.12-3.1c.74-.83,1.68-1.24,2.79-1.24.96,0,1.83.4,2.6,1.2v-.96Z"/>
      <path class="cls-8" d="m211.49,137.87c0-.79-.22-1.44-.65-1.94-.44-.51-.98-.77-1.64-.77-.7,0-1.28.25-1.72.74-.44.49-.66,1.12-.66,1.9s.22,1.45.65,1.93c.43.49,1,.74,1.7.74.66,0,1.21-.25,1.65-.74.44-.5.66-1.12.66-1.87m-4.56-10.25v7.01c.77-.79,1.64-1.19,2.61-1.19,1.12,0,2.05.42,2.8,1.25.75.83,1.12,1.86,1.12,3.1s-.38,2.33-1.13,3.16c-.75.83-1.69,1.24-2.83,1.24-.96,0-1.82-.37-2.58-1.11v.87h-1.91v-14.34h1.92Z"/>
      <rect class="cls-8" x="215.47" y="127.62" width="1.91" height="14.34"/>
      <path class="cls-8" d="m225.39,136.7c-.27-1.03-.91-1.54-1.93-1.54-.23,0-.45.04-.66.11-.2.07-.39.17-.56.31-.17.13-.31.3-.43.48-.12.19-.21.4-.27.64h3.85Zm1.97,1.57h-5.94c.05.68.27,1.21.66,1.61.39.39.89.59,1.51.59.48,0,.87-.11,1.18-.33.31-.22.66-.63,1.05-1.24l1.62.9c-.25.42-.51.79-.79,1.09-.28.3-.58.55-.89.74-.32.19-.66.34-1.03.43-.37.09-.77.14-1.2.14-1.24,0-2.23-.4-2.98-1.19-.75-.8-1.12-1.86-1.12-3.18s.36-2.37,1.09-3.18c.73-.8,1.7-1.2,2.91-1.2s2.18.39,2.89,1.17c.7.77,1.06,1.84,1.06,3.21v.45Z"/>
    </g>
    <g>
      <g class="cls-2">
        <rect class="cls-10" x="314.93" y="123.56" width="105.5" height="23.94"/>
      </g>
      <path class="cls-12" d="m316.12,146.3c-.46-.46-.72-1.08-.72-1.74v-18.06c0-1.36,1.1-2.46,2.46-2.46h99.62c1.36,0,2.46,1.1,2.46,2.46v18.06c0,1.36-1.1,2.46-2.46,2.46h-99.62c-.66,0-1.28-.26-1.74-.72m1.74-23.22c-1.89,0-3.42,1.53-3.42,3.42v18.06c0,.91.35,1.77,1,2.42.65.65,1.51,1,2.42,1h99.62c1.89,0,3.42-1.54,3.42-3.42v-18.06c0-1.89-1.54-3.42-3.42-3.42h-99.62Z"/>
      <path class="cls-8" d="m330.87,133.56v2.56c-.44-.54-.83-.9-1.18-1.1-.34-.2-.74-.31-1.21-.31-.72,0-1.33.25-1.8.75-.48.5-.72,1.13-.72,1.89s.23,1.41.69,1.91c.47.5,1.06.75,1.79.75.46,0,.87-.1,1.22-.3.34-.19.74-.57,1.21-1.13v2.56c-.78.41-1.56.62-2.34.62-1.29,0-2.36-.42-3.23-1.25-.86-.84-1.29-1.88-1.29-3.12s.44-2.29,1.31-3.14c.87-.85,1.95-1.28,3.23-1.28.82,0,1.6.2,2.33.59"/>
      <path class="cls-8" d="m339.29,129.09l-3.11,2.82-1.05-.65,2.35-3.11,1.81.94Zm-.92,7.15c-.27-1.02-.92-1.53-1.94-1.53-.23,0-.45.04-.66.11-.2.07-.39.17-.56.31-.17.13-.31.29-.43.48-.12.19-.21.4-.27.64h3.86Zm1.98,1.56h-5.97c.05.67.27,1.21.67,1.61.39.39.9.59,1.51.59.48,0,.88-.11,1.19-.33.31-.22.66-.63,1.05-1.23l1.62.9c-.25.43-.52.79-.8,1.09-.28.3-.58.55-.9.75-.32.2-.66.34-1.03.43-.37.09-.77.14-1.21.14-1.24,0-2.24-.4-2.99-1.2-.75-.8-1.13-1.87-1.13-3.19s.36-2.38,1.09-3.19c.74-.8,1.71-1.2,2.92-1.2s2.19.39,2.91,1.17c.71.77,1.06,1.85,1.06,3.22v.45Z"/>
      <path class="cls-8" d="m342.41,133.18h1.96v.74c.35-.37.67-.62.94-.76.28-.13.61-.19.99-.19.51,0,1.04.16,1.59.5l-.88,1.76c-.36-.26-.72-.39-1.07-.39-1.05,0-1.57.79-1.57,2.37v4.31h-1.96v-8.33Z"/>
      <path class="cls-8" d="m355.41,129.09l-3.11,2.82-1.05-.65,2.35-3.11,1.81.94Zm-.92,7.15c-.27-1.02-.92-1.53-1.94-1.53-.23,0-.45.04-.66.11-.2.07-.39.17-.56.31-.17.13-.31.29-.43.48-.12.19-.21.4-.27.64h3.86Zm1.98,1.56h-5.97c.05.67.27,1.21.67,1.61.39.39.9.59,1.51.59.48,0,.88-.11,1.19-.33.31-.22.66-.63,1.05-1.23l1.62.9c-.25.43-.52.79-.8,1.09-.28.3-.58.55-.9.75-.32.2-.66.34-1.03.43-.37.09-.77.14-1.21.14-1.24,0-2.24-.4-2.99-1.2-.75-.8-1.13-1.87-1.13-3.19s.36-2.38,1.09-3.19c.74-.8,1.71-1.2,2.92-1.2s2.19.39,2.91,1.17c.71.77,1.06,1.85,1.06,3.22v.45Z"/>
      <path class="cls-8" d="m358.53,133.18h1.96v.77c.37-.39.69-.65.95-.79.28-.13.63-.19,1.05-.19.94,0,1.69.41,2.23,1.23.6-.82,1.42-1.23,2.46-1.23,1.88,0,2.81,1.14,2.81,3.41v5.14h-1.96v-4.61c0-.79-.1-1.36-.29-1.69-.2-.33-.52-.5-.97-.5-.52,0-.91.2-1.15.6-.24.4-.36,1.04-.36,1.92v4.29h-1.96v-4.58c0-1.48-.43-2.22-1.28-2.22-.54,0-.93.2-1.18.61-.25.4-.37,1.04-.37,1.91v4.29h-1.96v-8.33Z"/>
      <path class="cls-8" d="m373.98,137.32c0,.82.22,1.48.67,1.96.46.49,1.06.73,1.81.73s1.36-.24,1.81-.72c.45-.48.68-1.12.68-1.92s-.23-1.44-.68-1.92c-.46-.49-1.06-.73-1.81-.73s-1.34.24-1.79.73c-.46.49-.69,1.11-.69,1.88m-1.96-.03c0-1.2.43-2.22,1.29-3.06.86-.84,1.91-1.26,3.14-1.26s2.29.42,3.16,1.27c.85.85,1.28,1.89,1.28,3.12s-.43,2.29-1.29,3.13c-.87.84-1.93,1.26-3.19,1.26s-2.29-.43-3.14-1.28c-.84-.84-1.26-1.9-1.26-3.18"/>
      <path class="cls-8" d="m382.94,133.18h1.96v.77c.67-.65,1.43-.98,2.27-.98.97,0,1.72.3,2.26.91.47.52.7,1.36.7,2.54v5.1h-1.96v-4.63c0-.82-.11-1.38-.34-1.69-.22-.32-.62-.48-1.2-.48-.63,0-1.08.21-1.35.63-.26.41-.39,1.14-.39,2.17v4h-1.96v-8.33Z"/>
      <path class="cls-8" d="m394.47,141.51h-1.96v-8.33h1.96v8.33Zm-2.2-11.79c0-.34.12-.63.37-.87.24-.24.54-.37.88-.37s.64.12.89.37c.24.24.37.53.37.88s-.12.64-.37.89c-.24.25-.53.37-.88.37s-.64-.12-.89-.37c-.25-.25-.37-.54-.37-.9"/>
      <path class="cls-8" d="m402.52,136.25c-.27-1.02-.92-1.53-1.94-1.53-.23,0-.45.04-.66.11-.2.07-.39.17-.56.31-.17.13-.31.29-.43.48-.12.19-.21.4-.27.64h3.86Zm1.97,1.56h-5.97c.05.67.27,1.21.67,1.61.39.39.9.59,1.51.59.48,0,.87-.11,1.19-.33.31-.22.66-.63,1.05-1.23l1.62.9c-.25.43-.52.79-.8,1.09-.28.3-.58.55-.9.75-.32.2-.66.34-1.03.43-.37.09-.77.14-1.21.14-1.24,0-2.24-.4-2.99-1.2-.75-.8-1.13-1.87-1.13-3.19s.36-2.38,1.09-3.19c.74-.8,1.71-1.2,2.92-1.2s2.19.39,2.91,1.17c.71.77,1.06,1.85,1.06,3.22v.45Z"/>
      <path class="cls-8" d="m411.44,134.62l-1.59.85c-.25-.5-.56-.75-.93-.75-.18,0-.33.06-.45.17-.13.12-.19.27-.19.45,0,.32.37.63,1.11.95,1.02.44,1.71.84,2.06,1.21.35.37.53.87.53,1.49,0,.8-.29,1.47-.88,2.01-.57.51-1.27.77-2.08.77-1.4,0-2.39-.68-2.97-2.04l1.64-.76c.23.39.4.63.52.74.23.21.51.31.84.31.65,0,.98-.29.98-.88,0-.34-.25-.66-.75-.95-.19-.1-.39-.19-.58-.28-.19-.09-.39-.18-.59-.28-.56-.27-.96-.54-1.18-.82-.29-.35-.44-.79-.44-1.34,0-.72.25-1.31.74-1.79.51-.47,1.12-.71,1.85-.71,1.07,0,1.86.55,2.38,1.65"/>
    </g>
  </g>
</svg>