<svg fill="currentColor" viewBox="0 0 190 64" id="logo" xmlns="http://www.w3.org/2000/svg"><g clip-path="url(#ara)"><path d="M.011 37.041h19.77c2.95 0 3.898-.854 3.898-3.512 0-1.762.011-3.13.015-4.142-1.065.585-1.922.765-3.365.765H9.75V.573L0 .581c.427.764.782 1.716.782 3.002v30.448c0 1.432-.321 2.22-.77 3.01ZM30.82.573c.529.956.767 1.908.767 3.01V33.59c0 2.478 1.02 3.486 3.523 3.486 2.07 0 4.917-.019 6.201-.03a5.951 5.951 0 0 1-.759-2.95V.573h-9.736.004ZM51.336.581c.566 1.027.778 1.87.778 3.003v30.005c0 2.478 1.016 3.486 3.508 3.486 2.107 0 4.932-.018 6.216-.03a6.037 6.037 0 0 1-.755-2.972V24.48h6.82c8.837 0 12.86-6.556 12.86-12.647C80.762 4.892 75.946.58 68.193.58H51.332h.004Zm16.156 16.92h-6.647V7.564h6.647c1.295 0 4.301.469 4.301 4.787 0 3.175-1.65 5.15-4.301 5.15ZM87.148 7.508h7.167V33.59c0 2.477 1.016 3.486 3.513 3.486 2.205 0 4.951-.019 6.208-.03a6.178 6.178 0 0 1-.751-2.973V7.508h7.103c2.795 0 3.38-1.743 3.38-3.204V.173c-1.027.345-2.096.4-3.029.408H84.281v7.655a5.906 5.906 0 0 1 2.867-.728ZM167.631 16.999s.249.277 13.202 14.986c3.26 3.703 5.941 5.42 9.056 5.769V.58h-9.022c.423.757.756 1.668.756 2.935v15.792s-.586-.724-12.319-13.967c-1.764-1.99-3.682-4.764-6.987-4.764h-3.727c.491.851.774 1.612.774 3.276v33.17h9.03a6.122 6.122 0 0 1-.763-2.931V16.995 17ZM134.178 0c-10.676 0-18.131 7.737-18.131 18.813 0 11.077 7.455 18.813 18.131 18.813s18.014-7.736 18.014-18.813c0-5.311-1.794-10.113-5.049-13.52-3.26-3.411-7.867-5.29-12.965-5.29V0Zm.06 29.886c-5.4 0-8.754-4.243-8.754-11.073s3.354-10.956 8.754-10.956c5.401 0 8.52 4.299 8.52 10.956 0 6.657-3.342 11.073-8.52 11.073ZM34.155 44.235a81.844 81.844 0 0 1 6.771-.607h.48c.173 0 .332-.008.48-.026a.793.793 0 0 0 .37-.135c.097-.072.147-.191.147-.353-.05-.232-.23-.356-.537-.363-.31-.008-.596-.015-.868-.015-2.22.037-4.404.172-6.549.405-2.145.232-4.18.45-6.106.648.075-.161.177-.307.313-.431.136-.127.193-.315.166-.57-.272-.307-.547-.45-.83-.43-.284.018-.563.12-.831.31a3.535 3.535 0 0 0-.74.705c-.223.281-.409.51-.556.69-1.405.127-2.78.273-4.124.446-1.344.172-2.696.337-4.052.502-1.356.161-2.73.307-4.124.431a65.525 65.525 0 0 1-4.309.244 1.794 1.794 0 0 1-.09-.431c-.012-.147-.144-.207-.39-.192-.468.038-.8.162-1 .379-.197.217-.283.446-.26.69.022.243.162.457.407.637.246.18.593.262 1.035.244 1.48 0 2.893-.064 4.237-.192 1.345-.127 2.662-.273 3.958-.446 1.295-.172 2.583-.352 3.867-.54a73.802 73.802 0 0 1 3.958-.472 122.397 122.397 0 0 0-3.773 7.94 48.66 48.66 0 0 0-2.81 8.696 4.48 4.48 0 0 0-.128.637 2.826 2.826 0 0 0-.019.73.808.808 0 0 0 .242.53c.136.127.362.142.683.052.246-.09.363-.233.352-.431a2.74 2.74 0 0 1 .056-.675 10.54 10.54 0 0 1 .684-2.365c.332-.802.66-1.582.982-2.34a482.273 482.273 0 0 1 2.847-6.859 33.354 33.354 0 0 1 3.478-6.263c2.123-.218 4.317-.473 6.586-.773l-.003-.007Z"></path><path d="M52.957 54.22a19.698 19.698 0 0 1-.982-.622 1.728 1.728 0 0 1-.65-.817c.069-.27.19-.51.36-.712.185-.218.385-.424.593-.615.211-.195.419-.397.619-.61.204-.218.362-.477.472-.773l.015-.041-.023-.038c-.105-.183-.294-.285-.558-.3h-.004a.305.305 0 0 0-.151.042c-.016.007-.034.007-.065 0l-.041-.012-.038.027a25.031 25.031 0 0 0-1.982 1.566 79.856 79.856 0 0 0-1.843 1.672c-.6.563-1.22 1.121-1.84 1.668a17.91 17.91 0 0 1-1.994 1.515 15.93 15.93 0 0 1-1.537.903c-.532.274-1.167.423-1.888.446-.038-.041-.102-.038-.159-.023-.31-.19-.475-.45-.51-.787a4.422 4.422 0 0 1 .065-1.184c.08-.424.181-.866.306-1.308a4.75 4.75 0 0 0 .189-1.226v-.03c-.057-.142-.197-.221-.427-.229a1.282 1.282 0 0 1-.325-.04.89.89 0 0 0-.253-.616c-.162-.16-.389-.285-.691-.367-.533-.026-.952.034-1.25.187l-.869.439a12.489 12.489 0 0 0-2.337 2.26c-.197.233-.404.499-.616.784-.17.228-.317.468-.45.704l-.033.023c-.148.139-.291.262-.435.367-.407.338-.868.664-1.378.979a5.197 5.197 0 0 1-1.73.66c-.483.1-.925.115-1.31.048-.382-.067-.691-.195-.918-.379a1.24 1.24 0 0 1-.434-.72c-.064-.288-.027-.621.113-.989a56.969 56.969 0 0 0 1.605-.678 7.85 7.85 0 0 0 1.488-.859c.442-.33.831-.708 1.152-1.132.328-.423.559-.937.684-1.522v-.037a1.104 1.104 0 0 0-.465-.712c-.25-.176-.623-.244-1.103-.203a3.194 3.194 0 0 0-1.446.461 6.333 6.333 0 0 0-1.167.934 10.1 10.1 0 0 0-.944 1.102c-.28.382-.506.7-.695.974-.238.102-.453.195-.646.282a.685.685 0 0 0-.4.54.56.56 0 0 0 .019.303c.03.075.072.142.124.202.046.053.091.105.136.15.027.026.038.068.042.135a.386.386 0 0 1-.03.236c-.05.098-.08.188-.102.289-.057.836.264 1.514.948 2.017.528.374 1.129.577 1.786.603.083 0 .166.004.25.004.566 0 1.136-.079 1.698-.233a7.59 7.59 0 0 0 1.825-.76c.31-.18.585-.364.838-.555a1.68 1.68 0 0 0 .05.498l.022.038c.287.322.623.468 1 .442a2.858 2.858 0 0 0 1.092-.322 6.416 6.416 0 0 0 1.03-.664c.318-.25.575-.45.779-.6.366-.318.755-.678 1.152-1.068.31-.303.611-.584.902-.84a7.504 7.504 0 0 0-.117.911c-.026.401.011.769.11 1.087.102.33.298.608.578.829.283.221.687.345 1.22.37a7.775 7.775 0 0 0 1.54-.374 9.253 9.253 0 0 0 1.307-.592 9.76 9.76 0 0 0 1.144-.739 92.33 92.33 0 0 0 1.042-.79 28.207 28.207 0 0 0 1.93-1.706 20.485 20.485 0 0 1 1.68-1.458c-.03.229-.007.435.072.615.102.24.265.46.476.656.208.19.446.367.71.528.25.15.495.311.73.476.222.158.415.33.57.51.147.176.226.363.245.58a.978.978 0 0 1-.147.597c-.121.195-.272.375-.45.536a6.147 6.147 0 0 1-.604.48c-.223.157-.43.3-.627.427-.196.131-.4.262-.612.401a4.28 4.28 0 0 1-1.476.592 3.345 3.345 0 0 1-.903.05.604.604 0 0 1-.094-.38c.015-.15.056-.303.124-.45.068-.145.155-.295.257-.442.106-.146.212-.277.317-.397a7.56 7.56 0 0 1 .725-.78c.257-.24.503-.472.733-.693a1.55 1.55 0 0 1 .276-.191c.128-.075.245-.158.34-.248a.88.88 0 0 0 .211-.296c.034-.086.045-.225-.098-.386l-.015-.019-.023-.007c-.196-.071-.366-.09-.51-.052a1.094 1.094 0 0 0-.377.18c-.11.078-.216.16-.325.247a1.862 1.862 0 0 1-.302.195l-.03.022c-.155.176-.329.33-.518.461-.2.143-.381.308-.517.487-.393.364-.763.754-1.103 1.159-.347.416-.555.96-.608 1.615v.03l.011.027c.03.06.057.116.072.176a.76.76 0 0 1 .023.19v.03l.015.023c.151.221.377.405.68.551.298.143.642.214 1.03.214a5.204 5.204 0 0 0 2.218-.48c.313-.142.615-.307.89-.483.284-.18.556-.36.816-.54a7.963 7.963 0 0 0 1.405-1.226c.442-.483.657-1.02.639-1.59-.02-.464-.163-.835-.427-1.105a4.465 4.465 0 0 0-.899-.697l.011-.008Zm-24.056-.093c.166-.285.355-.563.555-.832.2-.267.427-.521.672-.761.242-.233.503-.42.774-.559.136-.064.284-.116.439-.161a.875.875 0 0 1 .419-.004c.015.33-.076.63-.28.911a3.777 3.777 0 0 1-.857.836c-.351.251-.74.476-1.16.675l-.864.404c.098-.16.2-.333.306-.517l-.004.008Zm8.49 1.503c-.608.536-1.27 1-1.964 1.387.396-.787.868-1.515 1.405-2.167a7.536 7.536 0 0 1 2.22-1.81h.034c.06.093.095.206.102.34a.88.88 0 0 0 .121.417 32.775 32.775 0 0 1-1.915 1.833h-.003ZM69.55 59.536c-.173.03-.313.026-.419 0a1.33 1.33 0 0 1-.525-.82 3.568 3.568 0 0 1-.064-1.099c.034-.73.155-1.484.359-2.234.2-.746.412-1.45.623-2.088.034-.09.08-.191.132-.307.057-.128.09-.248.102-.364a.567.567 0 0 0-.08-.348c-.067-.117-.203-.195-.407-.24h-.038a1.555 1.555 0 0 0-.695.303c-.173.139-.328.3-.468.473l-.193.25a2.7 2.7 0 0 0 .242-.805 1.61 1.61 0 0 0-.098-.81c-.11-.258-.321-.446-.638-.562a1.72 1.72 0 0 0-.382-.041h-.415l-.034.007-.102.041s-.015.004-.057-.007l-.034-.008-.03.015c-.702.33-1.273.754-1.688 1.256-.408.495-.823 1.061-1.235 1.687a20.18 20.18 0 0 0-.978 1.627 4.447 4.447 0 0 0-.506 1.874v.015l.004.015a2.2 2.2 0 0 0 .336.67l.019.027.03.008c.08.022.14.052.185.082a.849.849 0 0 0 .242.113h.03c.419-.015.797-.087 1.129-.222.325-.13.623-.292.887-.48.261-.183.506-.386.733-.603.223-.213.434-.43.63-.637.412-.431.805-.885 1.168-1.342.287-.364.589-.701.906-1.005-.117.435-.238.911-.366 1.429-.163.648-.26 1.285-.295 1.9a4.514 4.514 0 0 0 .204 1.706c.178.524.54.91 1.08 1.139l.034.007a3.927 3.927 0 0 0 .725-.019c.333-.04.438-.232.469-.39l.007-.037-.022-.033c-.095-.139-.261-.188-.495-.147l-.012.004Zm-3.304-6.3c-.106.31-.23.625-.37.925-.144.304-.287.607-.438.903a7.14 7.14 0 0 0-.385.926c-.246.229-.499.45-.752.664-.215.18-.48.33-.782.446.28-.941.673-1.8 1.179-2.55a14.526 14.526 0 0 1 1.699-2.076 3.087 3.087 0 0 1-.147.758l-.004.003Z"></path><path d="M92.022 45.862c-.189 0-.37.094-.536.274a3.089 3.089 0 0 0-.412.562 6.448 6.448 0 0 0-.313.626c-.091.214-.159.364-.212.465-.09.195-.158.352-.204.472-.045.12-.083.229-.11.319-.026.09-.056.184-.09.277a6.053 6.053 0 0 1-.158.394 13.68 13.68 0 0 1-1.179 2.047c-.359.505-.717 1.011-1.08 1.525.05-.465-.011-.862-.185-1.192-.227-.427-.642-.716-1.258-.87h-.74a5.26 5.26 0 0 0-1.809.788 8.194 8.194 0 0 0-1.499 1.323c-.445.502-.85 1.05-1.197 1.623-.348.57-.65 1.14-.899 1.687-.143.303-.29.667-.442 1.083a5.037 5.037 0 0 0-.222.832c-.167.079-.337.161-.499.247-.177.094-.415.117-.714.068a.745.745 0 0 1-.487-.277 1.709 1.709 0 0 1-.29-.593 3.056 3.056 0 0 1-.118-.757 7.035 7.035 0 0 1 .015-.757c.02-.637.11-1.24.276-1.792.17-.566.257-1.113.257-1.642a1.11 1.11 0 0 0-.378-.69c-.219-.198-.536-.247-.94-.15a2.906 2.906 0 0 0-1.065.544 9.174 9.174 0 0 0-.944.859c-.295.307-.574.603-.843.888a4.917 4.917 0 0 1-.438.42c.065-.12.155-.251.265-.394.215-.277.396-.55.544-.824.15-.282.211-.544.185-.78-.034-.262-.28-.439-.756-.54h-.045a1.257 1.257 0 0 0-.506.255c-.12.109-.227.236-.31.371a2.132 2.132 0 0 0-.207.439 3.058 3.058 0 0 1-.178.4c-.159.26-.328.526-.506.8a3.568 3.568 0 0 0-.404.805c-.298.529-.63 1.05-.982 1.552a5.784 5.784 0 0 0-.816 1.728l-.011.041.027.038c.075.108.154.21.237.292.099.105.265.161.525.176.26-.041.48-.108.657-.206.178-.097.333-.214.465-.349.125-.13.245-.266.355-.408.102-.131.223-.255.37-.375.25-.274.495-.547.736-.82.235-.267.48-.537.74-.807.208-.292.442-.562.695-.794.257-.24.503-.506.737-.791.143-.105.283-.229.415-.364.133-.135.265-.27.4-.397a6.5 6.5 0 0 1 .397-.356c.08-.068.166-.124.257-.176l-.2 1.356c-.08.544-.125 1.08-.136 1.593a7.113 7.113 0 0 0 .12 1.455c.091.457.28.84.556 1.136.15.18.37.333.65.457.23.101.506.15.838.15.075 0 .155 0 .234-.008.28-.052.548-.135.797-.236.03.248.102.476.226.671.197.307.563.469 1.088.484.208.015.397 0 .563-.041a2.39 2.39 0 0 0 .46-.165c.133-.068.269-.135.404-.207.133-.07.276-.138.45-.21a15.967 15.967 0 0 0 2.002-1.6 21.384 21.384 0 0 0 1.73-1.833c.528-.633 1.041-1.3 1.525-1.987.374-.532.755-1.083 1.14-1.649-.09.424-.18.873-.272 1.334a32.335 32.335 0 0 0-.32 1.95 42.928 42.928 0 0 0-.216 1.968 12.924 12.924 0 0 0-.026 1.863c0 .183.004.37.015.562.007.195.038.386.083.566.045.187.125.356.227.498.109.15.279.274.513.356l.027.012.03-.008c.396-.101.62-.371.66-.813 0-.094-.056-.165-.154-.191-.106-.027-.25 0-.329-.045-.053-2.377.185-4.648.707-6.748a37.203 37.203 0 0 1 2.114-6.17c.034-.078.095-.198.185-.367.091-.176.166-.348.22-.513a.734.734 0 0 0 .01-.491c-.06-.165-.218-.248-.475-.248h-.019Zm-6.016 7.68c-.072.233-.147.466-.227.702-.083.247-.154.472-.215.69-.06.217-.08.438-.049.655-.31.315-.623.63-.94.953-.329.33-.676.648-1.035.948a9.7 9.7 0 0 1-1.163.832c-.382.232-.82.431-1.303.592a2.725 2.725 0 0 1 .019-.798c.053-.33.143-.667.275-1.005.129-.337.299-.682.503-1.03.2-.345.411-.694.627-1.031.173-.281.389-.585.634-.911.246-.323.51-.634.782-.919.268-.285.559-.54.865-.757.298-.213.596-.352.876-.412h.045c.064 0 .117.019.166.052.064.045.11.11.14.191.034.09.06.192.076.297.015.108.026.206.026.288 0 .221-.034.45-.102.675v-.011ZM112.365 60.323a2.317 2.317 0 0 0-.574-.244 3.298 3.298 0 0 0-.721-.12c-.261-.018-.499-.037-.722-.052a18.948 18.948 0 0 0-1.907-.015 49.27 49.27 0 0 0-3.848.311c-.604.071-1.167.135-1.684.191a31.729 31.729 0 0 1 2.885-5.412 73.934 73.934 0 0 1 3.55-4.87c.098-.037.226-.04.389-.015a.551.551 0 0 0 .427-.093c.321-.326.585-.652.796-.986.208-.334.45-.663.722-.986.272-.307.547-.63.831-.974.283-.342.449-.731.498-1.163a.25.25 0 0 1-.11-.217 1.903 1.903 0 0 0-.426-.228c-.159-.064-.389-.076-.684-.042a.89.89 0 0 0-.26.109 2.967 2.967 0 0 0-.963.663c-.295.297-.578.6-.85.907a37.913 37.913 0 0 0-4.679 6.358 43.914 43.914 0 0 0-3.384 7.17 62.81 62.81 0 0 0-3.606.623 70.605 70.605 0 0 0-3.422.783.324.324 0 0 1-.11.161c-.049.034-.098.072-.147.109-.075.431.011.712.26.84.246.127.575.165.983.12.407-.045.85-.132 1.333-.26.48-.127.895-.235 1.239-.325.592-.146 1.159-.274 1.703-.394a99.223 99.223 0 0 0 1.405-.31c.049.108.109.213.185.31.075.098.207.158.407.176.197-.037.333-.13.408-.285.076-.153.159-.292.261-.42a50.665 50.665 0 0 0 1.85-.27 60.045 60.045 0 0 1 2.055-.295c.702-.09 1.412-.158 2.126-.203a18.29 18.29 0 0 1 2.073-.015c.17 0 .355.023.555.068.201.045.397.078.593.093.197.02.374 0 .537-.052a.58.58 0 0 0 .351-.326.703.703 0 0 0-.314-.42h-.011ZM101.324 45.794c.125.064.261.106.408.12.147.02.306.015.48-.014a326.797 326.797 0 0 1 3.791-.514c1.05-.135 2.127-.274 3.237-.42.74-.09 1.492-.191 2.258-.296a49.238 49.238 0 0 1 4.623-.431 21.913 21.913 0 0 1 2.22 0c.344.019.695.071 1.054.161.359.09.672.038.944-.161-.027-.232-.215-.409-.574-.529a5.834 5.834 0 0 0-1.239-.243 11.968 11.968 0 0 0-1.424-.053c-.479.008-.857.023-1.129.042a140.51 140.51 0 0 0-6.012.352c-2.035.161-3.954.36-5.752.596-.294.037-.611.064-.944.082-.332.02-.645.06-.944.12a2.725 2.725 0 0 0-.778.285.93.93 0 0 0-.445.57c.022.161.098.274.222.337l.004-.004Z"></path><path d="m120.957 57.684-.042-.022a.579.579 0 0 0-.404-.068c-.109.03-.211.075-.306.14a4.52 4.52 0 0 0-.264.19.67.67 0 0 1-.261.124c-.192.09-.385.184-.593.296-.177.094-.415.116-.713.068a.746.746 0 0 1-.488-.278 1.752 1.752 0 0 1-.29-.592 3.082 3.082 0 0 1-.117-.757 6.907 6.907 0 0 1 .015-.757 6.726 6.726 0 0 1 .275-1.792c.17-.566.257-1.113.257-1.642a1.147 1.147 0 0 0-.378-.693c-.219-.199-.536-.248-.944-.15a2.862 2.862 0 0 0-1.061.543 9.203 9.203 0 0 0-.944.859c-.295.307-.574.603-.842.888a4.942 4.942 0 0 1-.438.42c.064-.12.155-.251.264-.394.215-.277.397-.554.544-.824.151-.285.211-.548.185-.78-.034-.263-.279-.439-.755-.54h-.046a1.239 1.239 0 0 0-.506.255c-.12.109-.226.236-.313.371a2.38 2.38 0 0 0-.208.439 3.104 3.104 0 0 1-.177.4c-.159.26-.329.526-.506.8a3.662 3.662 0 0 0-.404.805c-.299.525-.631 1.05-.982 1.552a5.674 5.674 0 0 0-.812 1.728l-.012.041.027.038c.072.105.151.206.234.296.098.105.264.161.525.176.261-.041.48-.109.657-.206.178-.094.332-.214.465-.349a6.53 6.53 0 0 0 .355-.408c.102-.132.222-.255.37-.375.249-.274.494-.547.736-.821.234-.266.48-.536.74-.806.212-.292.442-.562.695-.795.257-.24.502-.506.737-.79.143-.106.283-.23.415-.364.132-.135.264-.27.4-.397a7.65 7.65 0 0 1 .393-.357 1.55 1.55 0 0 1 .261-.176l-.201 1.357c-.079.54-.124 1.076-.136 1.593a6.934 6.934 0 0 0 .121 1.455c.095.457.28.843.555 1.135.152.18.371.334.65.458.23.1.506.15.838.15.076 0 .155 0 .235-.008.487-.094.94-.259 1.34-.498.178-.105.37-.218.574-.342.299-.18.329-.404.299-.558l-.008-.045-.011.007Z"></path><path d="m147.909 51.24-.015-.044a.73.73 0 0 0-.185-.293c-.091-.082-.242-.123-.465-.123l-.034.007a12.906 12.906 0 0 0-2.809 1.544c-.816.596-1.662 1.196-2.516 1.785-.407.258-.827.536-1.242.82-.416.282-.846.56-1.292.818a11.69 11.69 0 0 1-.676.386c-.23.127-.479.24-.736.337a4.107 4.107 0 0 1-.808.21 3.462 3.462 0 0 1-.861.015.743.743 0 0 1-.204-.472 2.245 2.245 0 0 1 .064-.619c.053-.225.128-.453.223-.678.098-.236.192-.469.283-.712.034-.131.076-.285.121-.461.045-.188.068-.356.068-.51a.69.69 0 0 0-.14-.439c-.098-.127-.272-.195-.517-.195-.159 0-.317.045-.472.128-.148.082-.291.18-.431.292-.136.113-.26.229-.366.337a8.45 8.45 0 0 1-.265.263c-.642.626-1.272 1.248-1.895 1.863-.533.528-1.092.986-1.666 1.368.363-.795.797-1.544 1.292-2.241a21.645 21.645 0 0 0 1.541-2.52l.022-.044-.026-.045c-.178-.3-.389-.465-.635-.488a1.13 1.13 0 0 0-.698.18 2.159 2.159 0 0 0-.589.54c-.159.214-.272.42-.329.607a10.24 10.24 0 0 0-.782 1.158c-.827.263-1.722.495-2.658.694-.975.206-1.949.371-2.893.491l-.174.023.076-.158c.389-.802.819-1.593 1.272-2.35.454-.757.918-1.458 1.379-2.088.461-.63.94-1.203 1.424-1.698a7.778 7.778 0 0 1 1.457-1.203l.457-.285-.332.423a.62.62 0 0 0-.113.315c-.016.143.026.199.052.225a.681.681 0 0 1 .204.068c.201-.02.404-.087.601-.206.211-.132.4-.293.563-.488.162-.195.29-.405.385-.63.087-.21.132-.408.139-.592a1.942 1.942 0 0 0-.294-.28c-.057-.042-.193-.095-.521-.11a2.108 2.108 0 0 0-.933.188 4.29 4.29 0 0 0-.914.543 9.994 9.994 0 0 0-.819.705l-.654.626a18.962 18.962 0 0 0-2.708 3.284 39.77 39.77 0 0 0-2.262 3.954l-.026.053h-.061c-.226 0-.434.018-.623.056-.204.041-.434.06-.687.06h-.026l-.023-.015a4.391 4.391 0 0 0-.525-.266 2.7 2.7 0 0 0-.684-.206 1.507 1.507 0 0 0-.638.026.638.638 0 0 0-.408.345.462.462 0 0 0 .212.333c.14.098.325.176.544.229.226.056.479.09.751.094.283.007.559 0 .82-.012h.045l.03.034c.121.143.246.278.37.405.129.135.242.292.336.468l.019.038-.019.041a14.196 14.196 0 0 0-.555 1.638 7.665 7.665 0 0 0-.291 1.803c0 .255.008.514.027.761.015.24.072.469.166.671.091.199.223.367.4.502.17.128.401.214.695.252.393-.124.676-.3.839-.525.166-.233.264-.491.29-.772a3.171 3.171 0 0 0-.052-.9 16.248 16.248 0 0 0-.201-.88 5.13 5.13 0 0 0-.302-.833c-.139-.307-.2-.589-.181-.836.038-.424.189-.806.446-1.143a3.58 3.58 0 0 0 .547-1.009l.019-.052.057-.011a96.101 96.101 0 0 0 3.187-.645c.884-.191 1.715-.42 2.481-.675l-.419.712c-.143.21-.306.47-.483.765-.178.3-.34.611-.472.919a2.766 2.766 0 0 0-.235.9c-.018.306.084.543.306.708.235.172.48.24.737.202a2.04 2.04 0 0 0 .702-.236c.216-.12.419-.259.616-.42.174-.146.309-.262.415-.352.242-.218.484-.416.714-.593.234-.176.453-.367.646-.562a19.41 19.41 0 0 0 1.22-1.237c.309-.34.63-.648.959-.914-.076.21-.144.434-.204.67a3.85 3.85 0 0 0-.125 1.031c.008.338.106.638.283.892.186.263.48.428.899.499.774-.041 1.45-.165 2.017-.379a7.67 7.67 0 0 0 1.541-.772c.449-.296.887-.61 1.303-.94a9.62 9.62 0 0 1 1.091-.754c0 .06.004.124.027.184l.098.28a9.378 9.378 0 0 0-.948.728c-.329.285-.65.596-.956.922-.306.315-.604.66-.887 1.035-.295.382-.465.798-.499 1.23-.037.408.102.741.423.989.31.24.737.375 1.269.4h.151c.261 0 .521-.026.778-.082a7.761 7.761 0 0 0 1.798-.64c.276-.136.54-.278.793-.42a9.409 9.409 0 0 0 1.711-1.193c.487-.438.778-.997.872-1.668v-.03l-.011-.026a1.058 1.058 0 0 1-.087-.198c-.027-.075-.045-.15-.064-.225l-.008-.034-.03-.023a2.767 2.767 0 0 1-.363-.31 1.378 1.378 0 0 0-.457-.304 2.593 2.593 0 0 0-.608-.18 15.405 15.405 0 0 1-1.219-.274 1.7 1.7 0 0 1-.397-.153c.234-.33.533-.615.891-.848.401-.258.797-.52 1.186-.78.404-.254.831-.517 1.265-.779a3.322 3.322 0 0 0 1.058-.963l.026-.038.004.008Zm-4.249 4.521c.238.045.469.094.691.146.216.05.405.12.563.207a.726.726 0 0 1 .298.285c-.188.36-.464.685-.819.97-.378.304-.774.578-1.171.821-.408.221-.857.45-1.344.682-.453.218-.967.323-1.53.323a1.15 1.15 0 0 1 .155-1.016 9.87 9.87 0 0 1 .725-.956c.265-.296.552-.585.861-.862.295-.266.571-.528.816-.787h.102c.193.075.415.139.653.184v.003ZM153.589 48.179a1.506 1.506 0 0 0 .902.052c.306-.075.536-.217.68-.431.166-.244.072-.529-.279-.843l-.046-.027a2.03 2.03 0 0 0-.978-.03c-.37.075-.623.233-.755.465l-.015.03v.034c0 .371.173.63.498.75h-.007ZM183.433 53.46a1.612 1.612 0 0 0-.926.071c-.29.109-.57.21-.838.3-.302.105-.593.21-.869.315a15.45 15.45 0 0 1-.842.292c-.544.225-1.072.458-1.578.686l-1.481.671a3.74 3.74 0 0 0-.528-.532c-.216-.176-.427-.349-.642-.517a7.174 7.174 0 0 1-.593-.529 1.885 1.885 0 0 1-.397-.588c.374-.42.869-.75 1.473-.982a9.223 9.223 0 0 1 2.141-.518.272.272 0 0 1 .098.068c.038.048.08.097.129.142a.608.608 0 0 0 .476.195c.272.015.476-.03.623-.135a.844.844 0 0 0 .302-.43c.053-.312-.079-.462-.204-.537a5.37 5.37 0 0 1-.419-.277l-.042-.02a5.195 5.195 0 0 0-1.412-.048 8.71 8.71 0 0 0-1.431.255 9.715 9.715 0 0 0-1.322.454 5.063 5.063 0 0 0-1.031.566c-.612.42-.918.843-.91 1.252.007.397.17.78.475 1.132.295.34.661.667 1.084.97.359.255.661.503.895.735-.441.206-.864.428-1.261.66-.389.225-.778.453-1.171.682l-.151.086-.022.019c-.099.109-.269.232-.499.364-.238.135-.48.28-.725.442a3.776 3.776 0 0 0-.646.52c-.2.207-.279.436-.238.69.004.027.019.05.027.076 0 0-.008 0-.008.003a.704.704 0 0 1-.347.03 1.217 1.217 0 0 1-.484-.315 1.5 1.5 0 0 1-.287-.487 4.288 4.288 0 0 1-.17-.618 5.917 5.917 0 0 1-.09-.664c-.034-.446-.046-.93-.027-1.443.015-.506.061-.997.133-1.47.015-.187.064-.45.143-.805.079-.352.136-.709.162-1.057.027-.356-.003-.671-.098-.937-.102-.293-.328-.45-.676-.465-.328 0-.615.116-.853.349-.223.213-.431.412-.631.596a25.264 25.264 0 0 0-1.582 1.784l-1.012 1.26c.23-.51.468-1.02.706-1.523a87.06 87.06 0 0 1 1.001-2.058c.052-.1.109-.21.173-.318a1.95 1.95 0 0 0 .155-.36c.038-.127.053-.247.045-.367a.552.552 0 0 0-.173-.349l-.03-.03h-.046a1.218 1.218 0 0 0-.521.142 1.471 1.471 0 0 0-.344.274l-.268.293a1.925 1.925 0 0 1-.279.247c-.333.232-.68.457-1.035.67-.351.21-.733.406-1.137.582a7.686 7.686 0 0 1-1.333.423 8.443 8.443 0 0 1-1.609.184.64.64 0 0 1-.17-.349l-.007-.04c-.027-.154-.049-.308-.076-.45a1.061 1.061 0 0 0-.192-.454c-.106-.139-.302-.218-.582-.233a1.69 1.69 0 0 0-.891.207c-.264.146-.506.33-.714.543-.208.21-.389.431-.544.656a9.192 9.192 0 0 0-.362.57c-.03.049-.061.105-.091.157a3.342 3.342 0 0 1-.109.117c-.272.262-.548.547-.824.836a20.477 20.477 0 0 1-2.896 2.08c-.249.157-.506.315-.774.476-.257.157-.54.311-.846.453-.299.143-.62.263-.96.364a4.244 4.244 0 0 1-1.08.172c-.222-.138-.328-.344-.328-.625 0-.38.068-.758.208-1.129.139-.375.305-.75.502-1.12.192-.364.396-.724.612-1.069.204-.33.377-.645.517-.933a.382.382 0 0 1 .189.045.486.486 0 0 0 .461-.045l.018-.015a2.04 2.04 0 0 0 .423-.799c.095-.326.11-.61.053-.847l-.007-.033-.03-.023a1.431 1.431 0 0 0-.314-.176c-.125-.053-.287-.064-.517-.034a.83.83 0 0 0-.204.083c-.404.202-.797.558-1.167 1.064a14.436 14.436 0 0 0-.982 1.515c-.193.374-.378.764-.551 1.158-.17.39-.306.783-.405 1.166a4.237 4.237 0 0 0-.136 1.128c.012.37.099.72.265 1.027l.347.266c.11.082.231.157.382.229.223.052.457.082.706.082.181 0 .374-.015.574-.045.906-.3 1.741-.67 2.474-1.102a19.92 19.92 0 0 0 2.058-1.387 9.206 9.206 0 0 0 1.457-1.143l.17-.169c-.105.315-.188.63-.241.945-.083.495-.053.952.083 1.353.143.42.464.712.952.877.26.098.57.128.91.094.34-.034.63-.105.868-.214a2.77 2.77 0 0 0 1.092-.817c.279-.349.502-.746.657-1.18.155-.428.245-.89.272-1.365.026-.435.015-.87-.031-1.286a8.326 8.326 0 0 0 1.549-.259c.502-.138.974-.3 1.401-.483a9.82 9.82 0 0 0 1.212-.611l.782-.461c-.378.727-.771 1.47-1.171 2.226a32.691 32.691 0 0 0-1.269 2.7c-.053.116-.121.254-.2.415-.083.173-.14.345-.17.514a.928.928 0 0 0 .045.498c.065.165.223.282.469.342h.038a1.48 1.48 0 0 0 .589-.24c.158-.117.302-.248.426-.394.129-.146.242-.3.344-.461.098-.154.189-.296.276-.424.596-.824 1.235-1.679 1.892-2.545a13.496 13.496 0 0 1 1.975-2.095c-.023.259-.057.532-.102.813a56.28 56.28 0 0 0-.185 1.155c-.064.397-.117.806-.162 1.214-.046.413-.057.821-.042 1.215.015.333.053.686.106 1.053.053.364.139.705.256 1.016.118.315.284.596.484.836.208.247.476.416.793.498.151.045.317.068.498.068h.133c.23-.015.445-.053.638-.113.151-.048.279-.116.393-.19.128.022.26.04.396.04.072 0 .144 0 .215-.01.42-.027.831-.102 1.224-.218.397-.12.782-.259 1.144-.413.367-.157.71-.33 1.024-.513l.868-.506.019-.015c.197-.199.378-.405.529-.619a2.21 2.21 0 0 0 .351-.794v-.038a5.944 5.944 0 0 1-.079-.536 1.223 1.223 0 0 0-.125-.442 18.46 18.46 0 0 1 1.416-.712c.51-.229 1.043-.458 1.583-.682.241-.09.51-.195.793-.315.26-.113.544-.221.834-.33.14-.053.291-.098.446-.135a6.34 6.34 0 0 0 .461-.128c.147-.045.283-.105.404-.172a.706.706 0 0 0 .291-.292l.056-.11-.121-.025.031-.004Zm-23.739 2.406a3.961 3.961 0 0 1-.314.945 2.027 2.027 0 0 1-.506.686 2.939 2.939 0 0 1-.181.124 3.815 3.815 0 0 1-.287.172 2.005 2.005 0 0 1-.317.139c-.102.033-.189.045-.265.033-.143-.018-.238-.105-.298-.262a2.08 2.08 0 0 1-.129-.528c0-.315.05-.63.144-.945.094-.319.219-.63.366-.922.151-.3.317-.592.491-.862.129-.203.253-.386.37-.559-.007.098-.015.188-.015.274 0 .105.03.195.087.273.068.087.193.124.389.105.317-.018.381-.153.381-.262 0-.041.027-.09.076-.142.068.21.106.45.106.72 0 .33-.034.667-.106 1.004l.008.007Zm16.231 1.995c-.23.303-.567.573-.997.802-.438.228-.929.42-1.462.566-.43.12-.834.213-1.208.277a6.805 6.805 0 0 1 1.669-1.323c.699-.397 1.405-.798 2.119-1.196a.867.867 0 0 1-.125.873h.004Z"></path></g><defs><clipPath id="ara"><path d="M0 0h189.89v64H0z"></path></clipPath></defs></svg>