<svg width="179" height="78" viewBox="0 0 179 78" fill="none" xmlns="http://www.w3.org/2000/svg">
<g clip-path="url(#clip0_738_2362)">
<path d="M31.4069 1.61746C31.6449 2.85288 30.1261 3.5216 29.8541 4.46233C29.2307 5.50507 28.2333 6.36646 27.9953 7.59054C28.5167 7.91923 29.4234 8.54261 28.8454 9.302C27.5104 10.8813 26.2763 12.5431 25.1505 14.2777C25.1505 15.8871 26.9526 14.7537 27.712 15.2751C27.2813 16.7372 25.2978 16.4085 24.3117 17.4059C22.8836 17.7799 21.7049 18.732 20.1861 18.97V18.1086C22.3736 15.1731 24.9804 12.4416 27.1566 9.58535C26.8279 8.06658 24.6404 8.97331 23.5977 8.73529C22.9856 7.69255 24.5497 7.26186 25.0258 6.88783L30.8515 1.48145L31.4069 1.61746Z" fill="#FF9E18"/>
<path d="M36.9606 7.73768C37.1986 8.11171 38.5814 8.34972 37.958 9.15445C37.3854 9.49192 36.7613 9.73314 36.1105 9.86849C34.3084 8.34972 33.9344 5.98088 32.5516 4.20142C32.6536 3.63472 32.1776 3.30603 32.1323 2.78466C32.5063 2.87533 32.699 2.3993 32.9823 2.78466L36.9606 7.73768Z" fill="#FF9E18"/>
<path d="M46.0619 14.8442C45.6312 16.3063 43.3077 14.9348 42.367 15.9776C42.6957 17.111 44.3051 17.6324 45.2118 18.5391C48.8161 20.4319 52.137 22.8574 56.1606 23.6621V24.0815C53.8938 24.3648 51.423 23.9908 49.4735 24.9429C50.4459 25.991 51.6714 26.7716 53.0324 27.2097C55.3016 28.7621 57.868 29.8273 60.5696 30.3379C60.7056 30.5306 60.9436 30.6779 60.853 30.9046L60.2863 31.3353L53.3158 31.6187L52.8851 32.0494C54.9738 33.7888 57.3904 35.0915 59.9916 35.8803V36.311C56.5913 36.073 53.4064 34.4182 50.3235 33.0468C48.7594 32.14 47.15 31.3807 45.6312 30.3379V29.6352C47.6374 29.3972 49.8135 29.6352 51.6043 28.9212L51.4683 28.3544C49.4735 27.017 47.864 25.7023 45.9259 24.2288V23.7981C46.7306 23.4694 47.864 23.7981 48.4761 23.0954C48.4761 22.4267 47.6714 22.3814 47.49 21.962C45.0645 20.4999 42.8884 17.8364 40.5195 15.9889C40.2362 15.2862 41.6529 15.1389 40.9502 14.4248C39.6695 13.144 37.6293 12.294 36.6772 10.7299C38.06 10.3105 39.5221 11.3532 40.8029 12.0106C42.605 12.6227 44.2031 14.2775 46.0619 14.8555" fill="#FF9E18"/>
<path d="M20.9002 22.0981C20.2881 23.0388 19.2454 23.7076 18.6334 24.7956C18.8714 25.691 21.8522 25.181 20.3448 26.7904C18.8122 28.1475 17.3874 29.6216 16.0832 31.1994C16.5932 31.9475 18.35 31.0068 18.214 32.3328C15.3238 34.6563 12.5469 36.2658 9.67938 38.5893C9.54337 38.918 9.96273 39.0653 10.1101 39.292L13.3743 39.7227V40.006H3.17358C5.11172 39.0086 7.38989 37.8752 9.28269 36.7418C10.9488 35.6084 13.0796 35.087 14.2584 33.4663C13.227 32.4235 11.7082 33.7043 10.5634 32.8996C10.5634 32.2308 11.2775 31.6641 11.8442 31.4828C13.7823 30.0093 15.9245 29.3973 17.3866 27.3572C17.0579 26.6884 16.0605 26.8811 15.5391 26.3598L15.8225 25.6457C18.2854 23.2185 20.8973 20.9472 23.643 18.8452C23.3597 20.1713 22.0903 21.112 20.9455 22.1208" fill="#FF9E18"/>
<path d="M144.59 26.0765C147.085 28.0089 149.806 29.6303 152.693 30.9048C152.546 32.0382 151.027 31.2902 150.71 32.3329C152.648 33.4663 154.824 33.9877 156.819 35.0304C159.947 36.3565 163.314 37.1159 166.34 38.5894C166.388 38.6403 166.422 38.7019 166.442 38.769C166.461 38.8361 166.464 38.9069 166.451 38.9754C166.438 39.044 166.408 39.1084 166.365 39.1635C166.322 39.2185 166.267 39.2626 166.204 39.2921C160.159 39.2014 154.235 38.9181 148.432 38.442L148.148 38.17L148.715 37.6033C150.554 37.8584 152.419 37.8584 154.258 37.6033C154.87 36.4132 152.932 36.0845 152.274 35.3365C150.427 34.5317 148.874 33.0696 147.004 32.2083C146.766 31.9702 146.913 31.6415 146.868 31.3582C147.196 31.1655 147.808 31.2222 147.718 30.6441C147.57 29.7941 146.913 29.4201 146.29 28.7967C144.898 27.6941 143.573 26.5094 142.323 25.2491V24.8184C143.354 24.5804 143.842 25.7251 144.59 26.0991" fill="#FF9E18"/>
<path d="M39.1027 39.0086C39.4314 39.3939 39.1027 39.87 38.8081 40.142C37.482 40.3347 35.2831 40.0627 35.4078 42.1255C35.2718 42.1255 35.0791 42.1255 34.9885 42.2728C34.2291 41.7514 34.6031 40.5727 34.7051 39.8586C35.7025 38.7252 37.55 39.0426 39.1141 38.9972" fill="#FF9E18"/>
<path d="M140.895 9.83443C140.226 11.3079 138.14 9.9251 137.2 10.9678C137.483 11.8292 138.526 12.4413 139.047 12.9627L143.309 16.9409C143.116 18.607 140.849 17.7457 139.909 18.7884C140.294 20.1145 141.892 20.2165 142.901 20.9192C145.168 22.2566 147.729 23.3901 149.293 25.3282C148.579 26.3709 147.208 25.7136 145.893 25.9062C144.85 22.778 141.053 21.2592 138.923 19.2191C138.773 18.7276 138.824 18.1972 139.064 17.743C139.304 17.2888 139.713 16.9477 140.203 16.7936C140.679 16.6122 140.532 16.0455 140.351 15.8075C138.594 13.6767 136.746 12.2939 135.08 10.1404C135.896 9.33572 137.46 10.0498 138.072 9.00703C136.746 6.53619 134.797 4.47338 133.233 2.03655C131.623 1.75319 131.295 3.884 130.535 4.88141C130.207 5.59546 129.402 5.49345 128.835 5.30077C128.971 3.79333 130.921 2.94327 131.533 1.60584C131.952 1.23182 132.054 0.33642 132.813 0.47243C135.568 3.87267 138.163 6.25284 140.917 9.85709" fill="#FF9E18"/>
<path d="M131.079 6.3095C131.079 7.17089 130.558 7.44291 130.082 8.1683C129.617 9.39238 128.484 10.0158 128.098 11.2852C128.336 11.9992 129.141 11.4779 129.527 11.8632V12.5659L124.993 17.4056C124.664 17.7796 124.993 18.301 125.412 18.403C126.274 18.4937 127.305 18.165 127.985 18.6864L127.838 19.2531C125.707 21.9053 122.953 23.7074 121.037 26.3596C121.604 27.3117 122.454 26.3596 123.304 26.6429V27.357C119.904 29.8165 116.198 32.9447 112.933 35.4609C111.748 35.6992 110.519 35.6011 109.386 35.1775V34.8942C112.786 32.9447 116.674 31.664 119.326 28.6377C118.578 27.731 117.15 28.6377 116.345 27.9237C116.81 26.9263 118 26.5523 118.906 25.9402C121.423 23.9907 123.44 22.1433 125.866 19.9671C126.104 19.2984 125.39 19.2531 125.016 19.1057C123.689 19.1057 122.363 19.6271 121.037 19.2531V18.9697C123.304 17.2583 125.254 15.4561 127.577 13.4273C127.237 12.0899 125.106 12.9513 124.177 12.7133V12.1012C126.512 10.3876 128.659 8.43097 130.581 6.26416L131.079 6.3095Z" fill="#FF9E18"/>
<path d="M114.588 39.1558L114.169 39.4392C108.717 39.2011 103.175 39.9605 98.097 39.2918C98.0063 38.9178 98.4257 38.6344 98.675 38.5891C102.744 38.4418 106.96 38.3058 110.893 38.3058C112.027 37.1723 113.455 38.4871 114.588 38.8725V39.1558Z" fill="#FF9E18"/>
<path d="M87.4315 38.17C87.6242 38.6461 87.1482 38.7368 86.8648 38.8841C75.6327 39.3601 65.0693 39.6888 53.9959 39.7342C54.0108 39.6771 54.004 39.6165 53.9768 39.5641C53.9495 39.5117 53.9038 39.4714 53.8485 39.4508C55.2766 38.7368 57.0674 37.184 58.6882 38.6008C68.4469 38.6008 77.8315 37.9774 87.2615 38.034L87.4315 38.17Z" fill="#FF9E18"/>
<path d="M131.793 39.7226C131.703 40.0513 132.077 40.856 131.363 40.72C130.615 40.72 130.331 39.7679 129.663 39.5866L126.863 39.2466C127.101 38.0112 129.799 38.8272 130.66 38.8725C130.908 38.9 131.143 38.9934 131.343 39.1429C131.542 39.2924 131.698 39.4926 131.793 39.7226Z" fill="#FF9E18"/>
<path d="M138.9 39.4396C139.002 40.199 138.435 40.573 137.902 41.1511C137.574 41.1511 137.109 41.151 137.052 40.7204C136.916 40.0063 137.2 39.2016 137.902 39.1562C138.288 39.1562 138.718 38.9636 138.9 39.4396Z" fill="#FF9E18"/>
<path d="M30.7042 40.2896C30.7042 40.913 30.8062 41.9558 29.8655 41.8538C29.5708 40.437 26.8506 40.7203 26.2839 39.7229C27.508 39.6096 30.2395 39.0542 30.7042 40.2896Z" fill="#FF9E18"/>
<path d="M143.943 49.2437V75.6862L143.649 75.9922H133.561L133.278 75.7089V49.0963L133.675 48.8357L143.649 48.813L143.943 49.2437Z" fill="#FF9E18"/>
<path d="M44.5772 48.79V56.6106H49.0428V48.824L60.411 48.8014L60.6943 49.0847L60.7057 75.5499L60.4223 75.9806H49.0315V67.514H44.5772V75.9806H33.4131L33.1297 75.6973V49.2207L33.5491 48.79H44.5772Z" fill="#FF9E18"/>
<path d="M20.9001 48.8239C24.7424 49.8667 27.4853 53.7089 28.29 57.4945C29.1061 61.8129 26.9639 65.4284 24.0284 68.16C24.7424 69.112 28.562 74.133 28.562 74.133L24.8671 77.3973H17.1599L10.6994 70.4721V75.6972L10.1327 75.9805H0.430694L0 75.5498V49.0846L0.283353 48.8013L20.9001 48.8239ZM16.5932 62.0622C16.7911 62.0622 16.9872 62.0232 17.17 61.9475C17.3529 61.8717 17.5191 61.7607 17.6591 61.6207C17.7991 61.4807 17.9101 61.3145 17.9859 61.1316C18.0616 60.9487 18.1006 60.7527 18.1006 60.5548C18.1037 60.1498 17.9473 59.7599 17.6652 59.4694C17.3831 59.1788 16.998 59.0109 16.5932 59.002H10.6994V62.0509L16.5932 62.0622Z" fill="#FF9E18"/>
<path d="M166.906 48.79L179 75.7653L178.581 75.9806H167.507L162.702 65.7912L158.791 75.9806H147.899L147.593 75.4479L157.907 48.79H166.906Z" fill="#FF9E18"/>
<path d="M164.719 75.9807H161.228L162.792 72.0024L164.719 75.9807Z" fill="#FF9E18"/>
<path d="M65.3186 62.0509C65.3186 54.117 72.3344 47.7358 80.9824 47.7358C89.6303 47.7358 96.6575 54.1396 96.6575 62.0509C96.6575 69.9621 89.6417 76.3772 80.9824 76.3772C72.3231 76.3772 65.3186 69.9621 65.3186 62.0509ZM82.5012 65.0997C83.3018 65.0967 84.0686 64.7766 84.6337 64.2094C85.1988 63.6422 85.516 62.8742 85.516 62.0735C85.5193 61.2634 85.2059 60.484 84.6427 59.9017C84.0794 59.3194 83.311 58.9803 82.5012 58.9566H79.1802C78.3694 58.9802 77.5997 59.319 77.0347 59.901C76.4696 60.483 76.1537 61.2623 76.154 62.0735C76.157 62.8752 76.4768 63.6432 77.0437 64.2101C77.6106 64.777 78.3786 65.0967 79.1802 65.0997H82.5012Z" fill="#FF9E18"/>
<path d="M101.225 76.0148L100.806 75.5955V49.2663L101.372 48.8356L120.357 48.7676C123.214 49.9147 125.625 51.9515 127.234 54.5763C128.843 57.2012 129.563 60.2744 129.288 63.3407C129.014 66.407 127.759 69.3032 125.709 71.6003C123.659 73.8974 120.924 75.4732 117.909 76.0942L101.225 76.0148ZM115.665 65.1001C116.467 65.1001 117.237 64.7812 117.805 64.2137C118.372 63.6462 118.691 62.8764 118.691 62.0738C118.694 61.2618 118.379 60.4808 117.814 59.8982C117.248 59.3156 116.477 58.9777 115.665 58.957H111.517V65.1001H115.665Z" fill="#FF9E18"/>
<path d="M159.222 4.83627C159.222 4.16377 159.421 3.50637 159.795 2.9472C160.169 2.38804 160.7 1.95222 161.321 1.69486C161.942 1.43751 162.626 1.37017 163.286 1.50137C163.945 1.63257 164.551 1.95641 165.026 2.43195C165.502 2.90748 165.826 3.51334 165.957 4.17293C166.088 4.83251 166.021 5.51618 165.764 6.1375C165.506 6.75881 165.07 7.28985 164.511 7.66348C163.952 8.0371 163.295 8.23651 162.622 8.23651C162.173 8.24739 161.726 8.16688 161.308 7.99985C160.891 7.83282 160.512 7.58276 160.194 7.26482C159.876 6.94689 159.626 6.5677 159.459 6.15025C159.292 5.7328 159.211 5.28577 159.222 4.83627ZM159.766 4.83627C159.764 5.39269 159.927 5.93725 160.234 6.40099C160.542 6.86472 160.98 7.22676 161.493 7.44124C162.007 7.65573 162.572 7.71302 163.118 7.60584C163.664 7.49867 164.166 7.23186 164.56 6.8392C164.955 6.44655 165.223 5.94573 165.333 5.40017C165.442 4.85461 165.387 4.28885 165.175 3.77457C164.962 3.26029 164.602 2.82063 164.14 2.51126C163.677 2.20189 163.133 2.03675 162.577 2.03675C161.833 2.03674 161.12 2.33133 160.593 2.85602C160.066 3.38071 159.769 4.09275 159.766 4.83627ZM164.118 6.75175H163.495L162.531 5.00629H161.829V6.75175H161.285V3.03415H162.883C163.574 3.03415 164.186 3.23816 164.186 4.03155C164.198 4.168 164.18 4.30536 164.134 4.43426C164.088 4.56317 164.014 4.68058 163.918 4.77848C163.823 4.87639 163.707 4.95249 163.579 5.00158C163.451 5.05068 163.314 5.07161 163.178 5.06296L164.118 6.75175ZM161.851 3.52152V4.46225H162.429C162.951 4.46225 163.642 4.55292 163.642 4.04289C163.642 3.53285 163.246 3.52152 162.792 3.52152H161.851Z" fill="#FF9E18"/>
</g>
<defs>
<clipPath id="clip0_738_2362">
<rect width="179" height="76.9248" fill="white" transform="translate(0 0.472656)"/>
</clipPath>
</defs>
</svg>
